<?xml version="1.0" encoding="UTF-8"?><svg xmlns="http://www.w3.org/2000/svg" viewBox="0 0 188.83 188.83"><defs><style>.d{fill:#a6010c;}.e{fill:#e20303;}.f{fill:#e0b1b1;}.g{fill:#417f01;}</style></defs><g id="a"/><g id="b"><g id="c"><g><circle class="f" cx="94.41" cy="94.41" r="94.41"/><g><path class="g" d="M91.21,39c.11-.03,.22-.05,.33-.05,.05,0,.11,0,.16,0,.32,.04,.63,.25,.89,.75,1.13,2.14,2.92,3.55,5.03,4.59,4.82,2.37,9.72,2.21,14.74,.59,8.17-2.65,12.58-8.79,15.73-16.47-3.04,.29-5.6-.8-8.19-1.75-.96-.35-1.89-.76-2.86-1.07-7.35-2.4-14.21-1.63-20.36,3.29-2.39,1.91-4.35,4.16-4.76,7.37-.27,2.09-.25,2.09-2.44,2.3,.17,.3,.35,.6,.52,.9,.4-.14,.8-.37,1.2-.47Z"/><path class="d" d="M91.84,56.73c0,.28-.01,.57-.05,.86,0,.08-.02,.15-.03,.22-.03,.21-.08,.39-.18,.51-.06,.09-.15,.15-.26,.2-.11,.04-.26,.06-.44,.06-.45-.01-.9,0-1.35,.02-.89,.05-1.77,.17-2.65,.33-1.75,.31-3.47,.78-5.2,1.18-.43,.1-.87,.2-1.3,.28-.09,.02-.18,.04-.26,.06-.35,.1-.67,.27-.89,.54-.17,.2-.29,.46-.32,.8,.1,.14,.21,.27,.33,.39,.12,.12,.24,.23,.37,.33,.18,.14,.37,.26,.57,.37,.66,.39,1.37,.71,1.94,1.22,2.6,1.31,5.38,1.95,8.24,2.24,.41,.04,.82,.08,1.23,.11,1.29,.09,2.59,.13,3.89,.11,.86-.02,1.72-.06,2.58-.14s1.71-.19,2.56-.35c.42-.08,.85-.16,1.27-.26,.46-.1,.92-.22,1.38-.36s.92-.29,1.37-.46c.9-.34,1.79-.75,2.64-1.22,.38-.21,.79-.35,1.19-.52,.06-.1,.13-.19,.21-.28,.15-.17,.34-.3,.53-.42,.48-.3,1.02-.53,1.32-1.05h0c-.1-.09-.19-.18-.29-.27-.19-.17-.39-.34-.63-.46-.12-.06-.25-.11-.39-.14-1.42-.35-2.83-.7-4.25-1.06-1.42-.36-2.83-.72-4.24-1.09-.07-.02-.14-.04-.21-.05-.14-.04-.28-.07-.42-.1-.41-.09-.81-.13-1.16-.03-.41,.12-.77,.43-1.03,1.1h0c-.06-.09-.11-.19-.14-.28-.1-.29-.09-.58-.09-.85,0-.28,.02-.54-.09-.76-.03-.07-.08-.14-.14-.21-.16,.02-.24,.08-.29,.16-.15,.24,.03,.66-.45,.78,.35-1.19-.36-2.13-.47-3.18-.45-1.18-.77-2.38-.89-3.64-.87-2.89-1.85-5.73-3.2-8.4-.27-.53-.55-1.05-.84-1.56-.26-.45-.54-.89-.82-1.33-.14-.22-.28-.44-.43-.66h0c-.17-.3-.35-.6-.52-.9-1.9-2.46-3.95-4.74-6.32-6.81-1.3-1.13-2.02-.88-3.04-.06-.38,.3-.72,.66-1.08,.98-.75,.66-.69,1.17,.07,1.88,2.72,2.52,5.15,5.32,7.14,8.45,.41,.64,.82,1.28,1.22,1.93,1.2,1.95,2.28,3.96,2.77,6.25,.77,1.78,1.57,3.55,1.59,5.53Z"/><g><path class="e" d="M154.04,103.83c.18-.85,.35-1.7,.53-2.55-1.47,.58-.59,1.65-.53,2.55Z"/><path class="e" d="M151.51,74.92h0c-.14-.28-.28-.56-.42-.84-.06-.15-.12-.29-.19-.44-.03-.06-.05-.11-.07-.17-.03-.05-.06-.1-.08-.14-.11-.21-.23-.4-.36-.6-.2-.31-.42-.6-.65-.89-.13-.17-.27-.34-.4-.51-.4-.51-.79-1.02-1.1-1.58-.27-.48-.55-.94-.85-1.39-.6-.89-1.26-1.73-1.93-2.56-.33-.42-.67-.83-1-1.24-1.21-1.53-2.57-2.93-4.01-4.22-1.08-.97-2.22-1.89-3.39-2.76-.39-.29-.79-.58-1.18-.86-.33-.24-.67-.47-1-.7s-.67-.46-1.01-.68c-.68-.44-1.36-.87-2.06-1.29-1.73-1.03-3.52-1.95-5.36-2.73-.74-.31-1.49-.59-2.25-.85-1.14-.39-2.3-.72-3.49-.97-.79-.17-1.6-.31-2.42-.42-1.17-.15-2.33-.22-3.49-.23-.77,0-1.54,.03-2.31,.08s-1.53,.13-2.29,.22c-.76,.09-1.52,.21-2.28,.33-2.66,.44-5.3,1.03-7.95,1.54-.5-.02-1.01-.09-1.45,.25l-.89,.04c-.77,.04-1.54,.07-2.31,.11h0c.12,1.26,.44,2.46,.89,3.64,.11,1.06,.82,2,.47,3.18,.49-.12,.31-.54,.45-.78,.05-.08,.14-.14,.29-.16,.06,.06,.11,.13,.14,.21,.1,.22,.1,.48,.09,.76,0,.28-.02,.57,.09,.85,.03,.1,.08,.19,.14,.28h0c.26-.67,.62-.98,1.03-1.1,.35-.1,.75-.06,1.16,.03,.14,.03,.28,.06,.42,.1,.07,.02,.14,.04,.21,.05,1.41,.37,2.83,.73,4.24,1.09,1.42,.36,2.83,.71,4.25,1.06,.14,.03,.27,.08,.39,.14,.24,.12,.44,.28,.63,.46,.1,.09,.19,.18,.29,.27-.3,.52-.84,.75-1.32,1.05-.19,.12-.37,.25-.53,.42-.08,.08-.15,.17-.21,.28-.4,.17-.82,.31-1.19,.52-.85,.48-1.73,.88-2.64,1.22-.45,.17-.91,.32-1.37,.46s-.92,.26-1.38,.36c-.42,.1-.84,.18-1.27,.26-.85,.15-1.7,.27-2.56,.35s-1.72,.13-2.58,.14c-1.29,.03-2.59-.01-3.89-.11-.41-.03-.82-.06-1.23-.11-2.85-.29-5.63-.93-8.23-2.24-.57-.52-1.28-.83-1.94-1.22-.19-.12-.39-.24-.57-.37-.13-.1-.26-.21-.37-.33-.12-.12-.23-.25-.33-.39,.03-.33,.15-.59,.32-.8,.23-.27,.55-.44,.89-.54,.09-.03,.17-.05,.26-.06,.44-.09,.87-.18,1.3-.28,1.73-.4,3.45-.87,5.2-1.18,.87-.16,1.75-.27,2.65-.33,.45-.03,.89-.04,1.35-.02,.18,0,.32-.02,.44-.06,.11-.04,.2-.11,.26-.2,.1-.13,.15-.3,.18-.51,.01-.07,.02-.15,.03-.22,.03-.29,.05-.58,.05-.86-.01-1.97-.81-3.74-1.59-5.53h0c-.14,.01-.28,.03-.42,.04-.14-.15-.31-.17-.49-.16-.06,0-.12,.01-.18,.02-.81-.12-1.65-.17-2.48-.23-.83-.06-1.64-.13-2.41-.31-2.66-.62-5.34-.92-8.03-1.22-.3-.03-.6-.06-.9-.09-.6-.06-1.2-.11-1.8-.15-1.5-.1-3-.14-4.49-.07-.6,.03-1.19,.07-1.79,.13-.59,.06-1.19,.14-1.78,.25-.59,.1-1.18,.23-1.77,.37s-1.18,.32-1.76,.51c-.41,.14-.81,.28-1.21,.43-2.79,1.05-5.36,2.41-7.75,4.04-1.02,.7-2.01,1.45-2.97,2.25-.64,.53-1.26,1.08-1.88,1.65-.92,.86-1.81,1.76-2.67,2.7-1.15,1.26-2.26,2.54-3.26,3.92-.6,.82-1.15,1.68-1.65,2.58,.01,.06,.02,.13,.04,.19,.03,.12,.06,.24,.1,.34,.05,.1,.11,.18,.19,.24,.04,.03,.09,.05,.15,.06,.06,.01,.12,.02,.19,.01,.07,0,.15-.02,.24-.04,.09-.02,.17-.04,.24-.04,.29-.01,.45,.12,.54,.33,.06,.15,.08,.34,.07,.54-.03,1.09-.03,2.19-.02,3.28,.01,1.09,.04,2.19,.05,3.28,.01,1.09,.01,2.19-.02,3.28-.01,.44-.04,.88-.06,1.32,.48,1.93,1.05,3.87,1.7,5.83,.15,.21,.27,.43,.37,.67,.13,.33,.23,.68,.3,1.02,.04,.17,.07,.34,.11,.51,2.43,6.58,5.84,13.18,9.98,19.29h0c.1,.15,.2,.3,.31,.44,1.21,1.77,2.49,3.49,3.82,5.16,.53,.67,1.07,1.32,1.62,1.97,24.22,28.57,65.16,38.47,91.86-38.85-.06-.34-.17-.66-.32-.96-.14-.29-.32-.56-.53-.82Zm-52.85-23.11c-.06,.03-.17,.07-.26,.06,.09,0,.2-.03,.26-.06,.33-.18,.66-.39,.98-.59-.32,.21-.64,.41-.98,.59Zm-54.92,14.79c.04,.19,.06,.4,.07,.58-.01-.18-.03-.39-.07-.58Zm82.16,26.2c-.36,.02-.78-.05-.96,.25,.18-.3,.6-.23,.95-.25,.28,0,.5,.07,.65,.18-.15-.11-.36-.18-.65-.18Zm25.59-17.89c0,.19-.02,.4-.04,.6,.02-.2,.04-.41,.04-.6Z"/><path class="e" d="M153.2,79.93c-.04-.3-.09-.61-.13-.91-.04-.3-.09-.61-.13-.91,0-.13-.03-.26-.06-.38s-.07-.24-.12-.36c-.1-.23-.23-.45-.4-.65,0,0,.34,1.19,.72,3.25,.03,.18,.06,.37,.1,.56,0,.04,.02,.09,.02,.13,0-.04,0-.09,0-.13h0c.3-.19,.3-.39,0-.59Z"/></g><path class="d" d="M154.97,83.99c-.47-2-1.15-3.96-2.03-5.89h0c.04,.3,.09,.61,.13,.91,.04,.3,.09,.61,.13,.91,.29,.2,.3,.4,0,.59h0s0,.09,0,.13c0-.05-.02-.09-.02-.13-.03-.19-.07-.38-.1-.56-.37-2.06-.72-3.25-.72-3.25-26.69,77.32-67.63,67.42-91.86,38.85-.55-.65-1.09-1.3-1.62-1.97-1.33-1.67-2.61-3.39-3.82-5.16-.1-.15-.2-.3-.31-.44h0c-4.14-6.11-7.55-12.71-9.98-19.29h0c-.03-.17-.07-.34-.11-.51-.08-.34-.17-.69-.3-1.02-.09-.23-.22-.46-.37-.67-.66-1.95-1.23-3.9-1.7-5.83,.03-.44,.05-.88,.06-1.32,.03-1.09,.03-2.19,.02-3.28-.01-1.09-.04-2.19-.05-3.28-.01-1.09-.02-2.19,.02-3.28,0-.19-.01-.39-.07-.54-.08-.2-.25-.34-.54-.33-.07,0-.15,.02-.24,.04-.09,.02-.17,.04-.24,.04-.07,0-.13,0-.19-.01-.06-.01-.1-.03-.15-.06-.09-.06-.15-.14-.19-.24-.05-.1-.08-.22-.1-.34-.01-.06-.02-.12-.04-.19h0c-1.44,2.14-2.69,4.36-3.72,6.64-2.28,5.02-3.56,10.38-3.8,16.05-.31,7.48,1.44,14.71,3.28,21.88,3.5,13.62,8.87,26.41,17.43,37.7,.6,.79,.79,1.89,1.73,2.38,1.02,.53,1.74,1.37,2.53,2.14,4.6,4.45,9.84,7.8,16.18,9.13,4.67,.98,9.4,.81,14.12,.53,3.01-.18,6.01-.59,9.04-.32,6.1,.54,12.21,.8,18.32,.15,3.64-.39,6.92-1.91,9.97-3.73,3.49-2.08,6.25-5.12,8.88-8.21,2.39-2.81,4.07-6.11,6.02-9.22,2.86-4.57,4.85-9.58,6.73-14.62,1.23-3.28,2.11-6.68,3.17-10.02,1.51-4.78,2.66-9.62,3.59-14.53-.06-.9-.94-1.97,.53-2.55,.38-2.34,.9-4.68,1.11-7.04,.3-3.5,.08-6.92-.71-10.25Z"/></g></g></g></g></svg>