<?xml version="1.0" encoding="UTF-8"?><svg xmlns="http://www.w3.org/2000/svg" viewBox="0 0 188.83 188.83"><defs><style>.d{fill:#e8dfc8;}.e{fill:#f2b776;}.f{fill:#fbf5d3;}</style></defs><g id="a"/><g id="b"><g id="c"><g><circle class="d" cx="94.41" cy="94.41" r="94.41"/><g><path class="e" d="M71.29,144.61c-9.59,0-19.19-.05-28.78,.02-3.76,.03-6.95-3.06-6.89-6.87,.09-5.98,.29-11.96,.44-17.93,.1-4.12,.2-8.24,.32-12.36,.16-5.44,.13-10.87,.07-16.3,0-.84-.1-1.69-.15-2.53-.06-1.02-.71-1.75-1.3-2.5-1.87-2.35-3.35-4.9-4.13-7.83-1.06-4,.23-7.23,3.23-9.91,2.36-2.1,5.14-3.43,8.06-4.58,4.59-1.81,9.1-3.82,13.7-5.6,7.04-2.72,14.13-5.31,21.27-7.78,3.12-1.08,6.19-2.29,9.42-3.01,5.16-1.15,10.38-1.99,15.63-2.58,4.87-.54,9.75-.82,14.63-.59,9.55,.45,19.01,1.63,28.16,4.56,3.55,1.14,6.9,2.73,9.67,5.34,3.8,3.58,4.59,7.31,2.6,12.16-1.01,2.47-2.39,4.72-4.15,6.72-.95,1.08-1.21,2.32-1.29,3.68-.29,4.91-.17,9.83-.13,14.75,.05,4.56,.18,9.12,.34,13.67,.17,4.8,.23,9.61,.35,14.41,.08,3.27-1.39,5.42-4.17,6.91-2.49,1.33-5.19,2.14-7.8,3.16-7.95,3.11-15.91,6.16-23.87,9.24-4.53,1.75-9.05,3.5-13.58,5.26-.9,.35-1.83,.5-2.8,.5-9.62-.01-19.24,0-28.86,0Zm.04-2.02c9.65,0,19.3,0,28.94,0,2.76,0,4.75-2,4.74-4.76,0-1.42-.05-2.84-.09-4.25-.11-4.04-.2-8.07-.35-12.11-.15-4.01-.24-8.02-.33-12.03-.08-3.55-.02-7.1-.16-10.64-.12-2.97,.12-5.95,.15-8.92,.02-1.79,.46-3.43,1.7-4.81,1.45-1.62,2.49-3.52,3.33-5.52,1.45-3.47,1.22-6.46-1.61-9.21-2.33-2.27-5.15-3.66-8.15-4.72-4.36-1.55-8.89-2.33-13.45-3.04-4.78-.75-9.58-1.17-14.41-1.21-3.38-.03-6.76,.21-10.12,.58-5.26,.58-10.48,1.38-15.58,2.81-3.94,1.1-7.72,2.56-10.77,5.44-1.65,1.56-2.73,3.39-2.6,5.76,.17,2.92,1.39,5.48,3.15,7.68,1.85,2.3,2.82,4.7,2.81,7.68-.04,8.08-.02,16.16-.32,24.24-.14,3.84-.21,7.69-.34,11.54-.12,3.55-.16,7.1-.19,10.65-.03,2.94,1.92,4.85,4.87,4.85,9.59,0,19.19,0,28.78,0Z"/><path class="f" d="M71.34,142.59c-9.59,0-19.19,0-28.78,0-2.95,0-4.9-1.92-4.87-4.85,.03-3.55,.07-7.1,.19-10.65,.13-3.85,.19-7.69,.34-11.54,.29-8.08,.28-16.16,.32-24.24,.01-2.98-.95-5.38-2.81-7.68-1.77-2.19-2.98-4.75-3.15-7.68-.14-2.38,.95-4.2,2.6-5.76,3.05-2.88,6.83-4.34,10.77-5.44,5.1-1.42,10.32-2.22,15.58-2.81,3.37-.37,6.74-.61,10.12-.58,4.83,.04,9.63,.46,14.41,1.21,4.55,.71,9.09,1.5,13.45,3.04,3,1.07,5.82,2.45,8.15,4.72,2.83,2.75,3.06,5.74,1.61,9.21-.83,2-1.88,3.89-3.33,5.52-1.24,1.39-1.68,3.02-1.7,4.81-.03,2.97-.27,5.95-.15,8.92,.14,3.55,.08,7.1,.16,10.64,.09,4.01,.18,8.02,.33,12.03,.15,4.04,.24,8.07,.35,12.11,.04,1.42,.09,2.83,.09,4.25,0,2.76-1.98,4.76-4.74,4.76-9.65,0-19.3,0-28.94,0Z"/></g></g></g></g></svg>