<?xml version="1.0" encoding="UTF-8"?><svg xmlns="http://www.w3.org/2000/svg" viewBox="0 0 188.83 188.83"><defs><style>.e{fill:#f06624;}.f{fill:#a0370d;}.g{fill:#ddb1dc;}.h{fill:#0b4f13;}.i{fill:#3caa4c;}</style></defs><g id="a"/><g id="b"><g id="c"><g id="d"><g><circle class="g" cx="94.41" cy="94.41" r="94.41"/><g><path class="i" d="M120.47,80.6c-1.98-2.57-3.97-5.14-5.95-7.71,1.18-2.3,1.68-4.77,1.66-7.34-.02-2.61-.72-3.61-3.12-4.53-.5-.19-1-.37-1.47-.61-2.05-1.09-2.32-2.43-.85-4.26,.18-.22,.51-.31,.97-.56-2.03-.9-3.47-1.7-4.36-3.19-.98-1.63-.81-3.06,.74-4.09,.84-.56,.65-.97,.14-1.5-.65-.68-1.38-1.3-1.99-2.02-2.03-2.41-1.37-4.46,1.67-5.11,.65-.14,.53-.49,.5-.88-.06-.76-.17-1.53-.2-2.29-.09-2.16,.79-3.87,2.45-5.21,.82-.66,1.64-.71,2.47-.29,1.89,.79,3.49,1.95,4.62,3.7,.26,.41,.37,.68,1.05,.39,1.95-.85,3.01-.36,4.02,1.53,.19,.36,.12,.9,.81,.99,2.38,.31,3.33,1.29,3.44,3.68,.06,1.24-.39,2.52,1.31,3.14,.6,.22,.74,1.18,.72,1.91-.19,7.09-1.19,14.01-4.24,20.5-.32,.68-.66,1.34-1,2.01,5.3-4.89,9.79-10.12,8.82-18.02-.16-1.29,.46-2.52,1.64-3.36,1.21-.87,2.15-.02,3.15,.47,.53-2.26,1.32-4.29,2.64-6.08,.85-1.14,1.95-1.9,3.42-1.96,1.35-.06,2.25,.69,2.93,2.04,.5-1.07,.83-1.89,1.24-2.66,1.22-2.25,2.93-3.95,5.64-3.95,2.48,0,3.53,1.7,3.82,3.91,3.02-.94,5.92-2.07,8.51,.67,.73,.73,.61,1.4,.25,2.12-.8,1.75-1.46,3.56-2.8,5.15,1.97,.65,3.2,1.68,3.19,3.74-.02,2.16-1.25,3.48-2.97,4.49-1.51,.89-3.21,1.15-5.09,1.5,1,1.05,1.56,2.18,1.1,3.51-.53,1.51-1.73,2.3-3.18,2.86-1.96,.76-4.07,.64-6.1,1.07,.82,2.33-.03,3.59-2.48,3.83-.97,.09-1.89-.1-2.77-.44-6.17-2.39-14.04,1.11-17.98,4.5,.98-.11,1.75-.15,2.5-.3,6.75-1.34,13.42-.66,20.05,.76,1.11,.24,2.21,.75,2.22,2.16,0,.78,.58,.63,.98,.71,1.35,.27,2.62,.68,3.67,1.64,.41,.38,.94,.94,.8,1.3-.7,1.72,.51,2.52,1.37,3.62,.72,.93,.75,2.17-.18,3.1-.53,.52-.44,.79-.02,1.28,.54,.62,1.01,1.31,1.43,2.01,1.08,1.81,1.44,3.82,.1,5.5-1.32,1.66-3.36,1.81-5.38,1.37-.46-.1-.93-.21-1.35-.42-1.14-.57-1.76-.54-2.24,.93-.48,1.48-2.43,1.64-3.93,.55-1.03-.75-1.61-1.86-2.26-2.92-.33-.54-.73-1.05-1.12-1.61-2.14,3-5.43,2.04-7-3.78-3.44,1.18-4.41,.57-4.9-3.09-.38-2.85-1.25-3.73-4.06-4.34-2.35-.5-4.69-.56-7.04-.1Z"/><path class="h" d="M116.05,44.88c.92,2.51,1.62,5.11,2.23,7.71,.61,2.61,1.09,5.25,1.41,7.92,.32,2.67,.37,5.38,.13,8.08-.28,2.67-.88,5.45-2.56,7.71l-.5-.5,29.44-22.52,.43,.56-29.27,22.73-.25-.63c2.87-.23,5.72-.29,8.59-.24,2.86,.08,5.73,.23,8.56,.67,2.83,.46,5.64,1.13,8.3,2.2,2.63,1.09,5.21,2.62,6.85,4.99-1.73-2.3-4.34-3.7-6.98-4.67-2.67-.95-5.47-1.5-8.28-1.84-2.81-.37-5.64-.59-8.48-.64-2.84-.05-5.69,.01-8.5,.24l-1.19,.1,.94-.73,29.27-22.73,.43,.56-29.44,22.52-2.03,1.55,1.53-2.05c1.55-2.07,2.15-4.74,2.41-7.34,.27-2.63,.11-5.29-.08-7.94-.21-2.65-.58-5.3-1.08-7.92-.51-2.62-1.09-5.23-1.91-7.78Z"/><path class="e" d="M120.47,80.6c-.26,.46-.15,.9,.03,1.36,19.89,25.52-79.79,66.28-90.53,63.25-6.96-2.52-2.81-8.42,2.48-14.62,4.95-5.8,10.02-11.51,15.32-16.99,13.31-13.79,27.11-27.07,42.56-38.5,3.06-2.26,6.4-4.04,10.07-5.12,4.67-1.38,8.99-.72,12.91,2.24,.37,.28,.81,.46,1.22,.68,1.98,2.57,3.97,5.14,5.95,7.71Z"/><path class="f" d="M52.07,109.15c.73,.81,1.3,1.64,1.84,2.5,.54,.86,1.02,1.74,1.46,2.65,.44,.9,.82,1.84,1.12,2.79,.29,.96,.51,1.95,.46,2.94-.1-.99-.46-1.9-.88-2.78-.43-.87-.93-1.71-1.48-2.5-.55-.8-1.15-1.56-1.77-2.29-.63-.72-1.3-1.42-1.99-1.98l1.24-1.33Z"/><path class="f" d="M72.21,89.98c.99,1.34,1.83,2.69,2.63,4.07,.79,1.38,1.53,2.8,2.19,4.25,.66,1.45,1.23,2.94,1.64,4.48,.39,1.53,.67,3.17,.28,4.7,.17-1.57-.32-3.08-.9-4.49-.6-1.42-1.35-2.77-2.18-4.07-.83-1.3-1.72-2.56-2.66-3.78-.94-1.21-1.94-2.4-2.97-3.45l1.97-1.71Z"/><path class="f" d="M93.94,72.75c.95,1.81,1.7,3.59,2.41,5.42,.7,1.83,1.32,3.67,1.85,5.55,.52,1.88,.94,3.79,1.15,5.73,.19,1.92,.22,3.96-.55,5.75,.5-1.87,.19-3.79-.24-5.61-.46-1.83-1.11-3.61-1.86-5.34-.76-1.73-1.6-3.42-2.51-5.07-.91-1.64-1.89-3.27-2.94-4.73l2.7-1.7Z"/></g></g></g></g></g></svg>