<?xml version="1.0" encoding="UTF-8"?><svg xmlns="http://www.w3.org/2000/svg" viewBox="0 0 188.83 188.83"><defs><style>.d{fill:#f2c7d6;}.e{fill:#fdc00e;}.f{fill:#fddd44;}.g{fill:#c9930d;}</style></defs><g id="a"/><g id="b"><g id="c"><g><circle class="d" cx="94.41" cy="94.41" r="94.41"/><g><path class="e" d="M53.87,127.22c-3-.57-6.03-.92-9-1.65-2.58-.63-5.25-.88-7.88-1.34-2.23-.39-4.48-.65-6.7-1.13-.9-.19-.97-.55-.98-1.28-.23-10.16-.42-20.32-.78-30.47-.17-4.69-.43-9.38-.45-14.08,0-.96-.02-1.94,.99-2.5,.69,1.45,2.15,1.67,3.44,2.04,2.37,.68,4.85,.85,7.27,1.29,4.85,.87,9.71,1.63,14.57,2.41,5.55,.89,11.07,1.96,16.61,2.92,.69,.12,1.45,.16,2.11-.02,3.21-.88,6.47-1.47,9.71-2.2,2.92-.66,5.88-.89,8.87-.75,.94,.05,1.88,.32,2.23,1.28,.37,1.01-.33,1.72-1.03,2.31-.82,.69-1.79,1.14-2.78,1.53-.42,.17-.88,.24-.94,.73,3.47,.93,7.03,1.19,10.52,1.83,3.75,.69,7.49,1.39,11.25,2.02,5.94,1,11.91,1.9,17.84,2.95,3.17,.56,6.31,1.33,9.47,1.84,4.85,.79,9.69,1.74,14.57,2.35,2.62,.33,5.07,1.58,7.78,1.4,.01,4.66,.01,9.32,.06,13.97,0,.97-.38,1.27-1.33,1.37-3.23,.34-5.98,3.69-6,6.17-.03,3.9,1.74,6.88,4.9,7.65-.03,2.04,1.57,.86,2.4,1.22,.02,4.95,.03,9.91,.06,14.86,0,.86-.12,1.3-1.2,1.1-4.26-.83-8.53-1.71-12.83-2.29-3.24-.44-6.45-.95-9.67-1.5-3.16-.54-6.31-1.16-9.46-1.71-2.72-.47-5.45-.88-8.17-1.33-1.23-.2-2.45-.43-3.68-.64-.75-.89-1.5-1.78-2.76-.68-.13,.11-.39,.08-.59,.11-2.97-.48-5.94-.98-8.92-1.43-3.48-.52-6.91-1.32-10.41-1.71-2.18-.24-4.28-1.05-6.49-1.18-1-1.43-1.57-1.55-2.45-.54-3.18-.17-6.24-1.06-9.38-1.49-3.14-.43-6.27-.97-9.37-1.61-2.25-.46-4.5-.88-6.78-1.19-1.05-1.07-3.29-1.61-4.58-1.07-.05,.02-.01,.27-.01,.41Z"/><path class="f" d="M160.56,98.72c-2.71,.18-5.15-1.07-7.78-1.4-4.88-.62-9.71-1.56-14.57-2.35-3.16-.51-6.3-1.29-9.47-1.84-5.94-1.05-11.9-1.94-17.84-2.95-3.76-.63-7.5-1.34-11.25-2.02-3.5-.64-7.05-.91-10.52-1.83,.06-.48,.52-.56,.94-.73,.99-.39,1.96-.84,2.78-1.53,.71-.6,1.4-1.3,1.03-2.31-.35-.97-1.29-1.24-2.23-1.28-2.99-.14-5.94,.09-8.87,.75-3.24,.73-6.5,1.33-9.71,2.2-.66,.18-1.42,.14-2.11,.02-5.54-.96-11.06-2.03-16.61-2.92-4.86-.78-9.72-1.54-14.57-2.41-2.42-.43-4.9-.6-7.27-1.29-1.29-.37-2.76-.59-3.44-2.04,.97-2.3,2.72-4.03,4.3-5.87,2.61-3.06,5.81-5.48,9.03-7.86,2.55-1.88,5.27-3.7,8.01-5.05,4.26-2.09,8.77-3.84,13.34-5.33,5-1.64,10.06-3.04,15.2-4.12,3.8-.8,7.64-1.5,11.49-2.08,1.68-.25,3.39-.31,5.05-.69,.96-.22,1.78,.12,2.52,.73,1.92,1.56,3.77,3.19,5.57,4.89,1.7,1.6,3.67,2.91,5.42,4.46,1.82,1.61,3.64,3.2,5.51,4.75,3.32,2.76,6.5,5.68,9.8,8.46,1.56,1.31,3.06,2.7,4.77,3.83,.66,.43,.7,1.09-.05,1.56-.68,.43-1.4,.77-1.94,1.42-1.22,1.46-.97,3.27,.65,4.22,3.09,1.82,6.36,2.38,9.83,1.3,1.04-.32,1.64,.44,2.23,.94,2.25,1.88,4.38,3.89,6.61,5.79,3.33,2.85,6.78,5.58,10.04,8.51,1.43,1.28,3.08,2.38,4.1,4.09Zm-61.1-38.34c-.7-.13-1.74,.15-2.77,.36-1.13,.22-2.28,.47-3.35,.89-1.72,.68-3.31,1.66-3.83,3.57-.5,1.82,.83,3.98,2.98,4.88,4.87,2.05,9.81,2.06,14.62-.06,1.34-.59,2.89-1.47,3.06-3.41,.17-1.85-.69-3.16-2.14-4.03-2.5-1.51-5.29-2.1-8.58-2.19Zm-39.83,10.04c1.39,.29,2.58-.65,3.91-.79,1.08-.12,1.31-.96,1.49-1.63,.19-.7-.21-1.66-.81-1.98-2.82-1.51-5.89-2.11-8.83,.32-.87,.72-.88,2.24,.11,2.79,1.26,.7,2.52,1.53,4.13,1.29Z"/><path class="f" d="M53.87,127.22c0-.14-.04-.39,.01-.41,1.29-.54,3.53,0,4.58,1.07-1.59,.17-3.08-.3-4.6-.66Z"/><path class="f" d="M160.58,129.11c-.82-.36-2.43,.83-2.4-1.22,.49,0,.99,.05,1.48,.01,.97-.08,1.06,.46,.91,1.21Z"/><path class="f" d="M112.27,137.02c.2-.03,.46,0,.59-.11,1.26-1.09,2.01-.21,2.76,.68-1.17,.1-2.3,0-3.35-.58Z"/><path class="f" d="M84,132.17c.87-1.02,1.45-.89,2.45,.54-.83-.1-1.79,.36-2.45-.54Z"/><path class="e" d="M99.46,60.38c3.28,.09,6.08,.68,8.58,2.19,1.45,.87,2.3,2.17,2.14,4.03-.18,1.94-1.72,2.82-3.06,3.41-4.81,2.12-9.75,2.11-14.62,.06-2.14-.9-3.48-3.06-2.98-4.88,.52-1.91,2.12-2.89,3.83-3.57,1.07-.42,2.22-.67,3.35-.89,1.03-.2,2.07-.49,2.77-.36Z"/><path class="e" d="M59.63,70.41c-1.61,.24-2.87-.59-4.13-1.29-.99-.55-.99-2.07-.11-2.79,2.94-2.43,6.01-1.83,8.83-.32,.6,.32,1,1.29,.81,1.98-.18,.67-.41,1.52-1.49,1.63-1.33,.15-2.51,1.09-3.91,.79Z"/><ellipse class="g" cx="49.03" cy="104.34" rx="5.6" ry="7.14" transform="translate(-59.13 144.24) rotate(-85.08)"/><ellipse class="g" cx="105.01" cy="99.95" rx="2.41" ry="7.26" transform="translate(-7.16 191.79) rotate(-82.9)"/><ellipse class="g" cx="126.78" cy="130.93" rx="1.8" ry="3.83" transform="translate(-25.35 231.29) rotate(-79.33)"/></g></g></g></g></svg>