<svg width="390" height="1440" viewBox="0 0 390 1440" fill="none" xmlns="http://www.w3.org/2000/svg">
<g clip-path="url(#clip0_204_522)">
<rect width="390" height="1440" fill="#F8E0C9"/>
<path d="M180.075 1051.04C90.8923 1172.12 137.722 1682.95 253.37 1778.68L697.771 1877.24L651.263 -186.207L190.031 -221.976C156.04 -179.981 85.1462 -76.6847 73.4945 0.5347C58.9298 97.059 123.441 217.211 248.157 447.899C372.872 678.586 269.257 929.949 180.075 1051.04Z" fill="#FFD4A9"/>
<path d="M300.011 568.277C251.872 464.046 114.603 100.903 294.048 -87.5192L495.292 -197.341L587.233 1654.56L374.706 1708.91C356.587 1672.91 317.933 1583.74 308.264 1515.09C296.178 1429.27 319.566 1318.45 364.868 1105.63C410.17 892.82 348.15 672.508 300.011 568.277Z" fill="#FCCD9A" stroke="#ED9251"/>
</g>
<defs>
<clipPath id="clip0_204_522">
<rect width="390" height="1440" fill="white"/>
</clipPath>
</defs>
</svg>
