<?xml version="1.0" encoding="utf-8"?>
<!-- Generator: Adobe Illustrator 26.2.1, SVG Export Plug-In . SVG Version: 6.00 Build 0)  -->
<svg version="1.1" id="Layer_1" xmlns="http://www.w3.org/2000/svg" xmlns:xlink="http://www.w3.org/1999/xlink" x="0px" y="0px"
	 viewBox="0 0 612 792" style="enable-background:new 0 0 612 792;" xml:space="preserve">
<style type="text/css">
	.st0{fill:#A5664C;}
	.st1{fill:#D8A28D;stroke:#A37B72;stroke-width:0.5;stroke-miterlimit:10;}
	.st2{fill:#D89088;stroke:#BF9186;stroke-width:0.25;stroke-miterlimit:10;}
	.st3{fill:#FFFFFF;}
	.st4{fill:#BF9186;}
</style>
<path class="st0" d="M298.2,189.3c0,0,0.7-26.2,1.8-32.6s6-14.9,7.5-14.2s14,18.8,15.5,20.2c1.5,1.3,3.2-0.5,3.2-0.5
	s0.1-7.3,4.1-8.8c4-1.6,16.6,18.6,16.6,18.6s5.8-3.1,7.5-2.2c1.8,0.9,4.2,28.6,4.2,28.6l-44.1,4.7L298.2,189.3z"/>
<path class="st1" d="M337.4,452.7c0,0-2.2-19.5-4.9-28.4c-2.7-8.9-17.1-52.1-19.1-56.1c-2-4-16.2-38.1-18.6-42.1
	c-2.4-4-10.9-20.6-12.6-22.6c-1.8-2-10-7.1-12.4-10.6c-2.4-3.5-10.9-16.2-13.3-18.8c-2.4-2.7-12.6-14.4-14.6-17.5
	c-2-3.1-2.9-8.9-4.7-13.3c-1.8-4.4-6.7-15.5-8.6-17.7c-2-2.2-5.3-7.8-6-10.9c-0.7-3.1-3.7-10.3-4.7-11.8c-1-1.5-2.2-4.7-5.7-7.3
	c-3.5-2.7-6.2-9-4.8-11.1s7.3-5.7,10-4.3c2.7,1.3,11.1,4.8,18.3,13.3s13.1,19,15.3,23.9c2.2,5,9.1,14.6,12.5,14.6s5.8-18,5.8-18
	s3.8-24.4,3.8-28.8c0-4.3-0.2-18.1-0.2-23.1c0-5-0.5-12.3-0.7-15.5c-0.2-3.2-0.5-14.3-1-18c-0.5-3.7-1.7-15.6-1.3-17.5
	c0.3-1.8-0.7-10.6,2.3-14c3-3.3,8-7,12.6-2.3c4.7,4.7,4.3,12,5,15.1c0.7,3.2,1.5,10.6,1.7,14.8c0.2,4.2,2.3,13,3.8,16.5
	c1.5,3.5,2,15.8,1.8,17.8c-0.2,2,1.5,22.1,1.5,22.1s-0.8,4.3,0.8,5.8c1.7,1.5,2.5-1.7,2.2-4c-0.3-2.3,0.3-29.8,0.3-29.8
	s0.8-6.5,2-8.6c1.2-2.2,4.2-7.3,12.1-6c8,1.3,9.3,9.6,9.5,12c0.2,2.3,1,20.5,1,21.8s-0.3,9.8,0.7,11s1-1,0.8-4.7
	c-0.2-3.7-0.8-20.5-0.8-21.9s2.7-7.6,7.3-7.6c4.7,0,9-0.5,10.8,2.5c1.8,3,3.7,6.7,3.5,14.6c-0.2,8-1,19.3-0.8,21s0.7,5.5,1.7,7.1
	c1,1.7,0-10.6,0-12.5c0-1.8,0-11.1,1.7-12.1c1.7-1,6.7-3.7,12.1,0c5.5,3.7,3.8,12,3.8,12s-0.4,10,0.2,18.5c0.6,8.5,2.4,16,1.3,23.4
	c-1.2,7.5-2.5,13.6-2,16.5s-1.3,14.8-3,19.6c-1.7,4.8-5,17.5-4.2,22.4c0.8,5,2.8,15,3.3,17.3s7,9.6,7.6,12.5s6.8,25.6,7.6,28.8
	c0.8,3.2,11.1,28.4,14.8,33.4c3.7,5,18.6,33.1,19.6,35.1s19.1,33.1,19.1,33.1l5.3,8.3l1.8,2.1H337.4z"/>
<path class="st2" d="M274.2,94.9c-1.4,1-2,6.3,1.3,9.3c3.3,3,6.8,3,8.8,1.3s3-5,2.7-6.5c-0.3-1.5-3.5-6.2-5.3-6.2
	C279.9,92.9,278.5,91.9,274.2,94.9z"/>
<path class="st3" d="M285.3,95.8c-1.1-1.5-2.5-3-3.5-3c-1.8,0-3.2-1-7.5,2c-0.5,0.3-0.8,1.1-1,2.2C276.3,94,281.5,93.6,285.3,95.8z"
	/>
<path class="st2" d="M207.8,184.1c1.3-1.8,4-2.2,5.7-0.7c2.2,1.8,4.8,4.5,5.2,6.9c0.7,4.2,0.5,8.6-2.5,9c0,0-4.5-4.1-5.7-5.4
	c-1.6-1.9-3.9-7.2-3.5-8.4C207.2,185.1,207.4,184.6,207.8,184.1z"/>
<path class="st3" d="M210.2,184.5c0.7-0.2,1.4-0.3,2.1-0.3c1,0,1.7,0.2,2.5,0.5c0,0,0.1,0,0.1,0c-0.5-0.5-1-0.9-1.5-1.3
	c-1.7-1.5-4.4-1.2-5.7,0.7c-0.4,0.5-0.6,1-0.7,1.4c-0.1,0.2,0,0.6,0.1,1.1C207.9,185.6,209,184.9,210.2,184.5z"/>
<g>
	<path class="st4" d="M273.9,122.5c1.1-0.7,2.2-1.2,3.3-1.6c1.2-0.5,2.3-0.8,3.5-1.1c1.2-0.3,2.4-0.5,3.7-0.5c1.2,0,2.5,0,3.7,0.4
		c-1.2,0-2.4,0.1-3.6,0.3c-1.2,0.2-2.4,0.5-3.5,0.7C278.7,121.2,276.3,121.9,273.9,122.5z"/>
</g>
<g>
	<path class="st4" d="M276.1,149.1l4,0c1.3,0,2.6,0,3.9-0.1c1.3-0.1,2.6-0.2,3.9-0.4c1.3-0.2,2.5-0.5,3.7-1.1
		c-1,0.9-2.3,1.5-3.6,1.9c-1.3,0.4-2.6,0.6-4,0.7c-1.3,0.1-2.7,0-4-0.1C278.7,149.7,277.3,149.5,276.1,149.1z"/>
</g>
<g>
	<path class="st4" d="M274.9,151.2c1.4,0.8,3,1.5,4.5,1.9c1.6,0.4,3.2,0.6,4.8,0.5c0.4,0,0.8-0.1,1.2-0.1c0.4-0.1,0.8-0.1,1.2-0.2
		l1.2-0.3l1.1-0.4c0.8-0.2,1.5-0.7,2.2-1c0.7-0.4,1.4-0.8,2.2-1.2c-0.6,0.6-1.2,1.1-1.9,1.7c-0.7,0.4-1.4,1-2.2,1.3
		c-1.5,0.8-3.2,1.2-5,1.3c-1.7,0.1-3.5-0.2-5.1-0.8C277.6,153.3,276.1,152.4,274.9,151.2z"/>
</g>
<g>
	<path class="st4" d="M225.5,221.4c0.7-0.9,1.4-1.8,2.1-2.6c0.6-0.9,1.3-1.8,1.9-2.7c0.6-0.9,1.2-1.9,1.7-2.8l1.6-2.9
		c-0.4,2.3-1.3,4.4-2.5,6.3c-0.6,1-1.3,1.9-2.1,2.7C227.4,220.1,226.5,220.8,225.5,221.4z"/>
</g>
<g>
	<path class="st4" d="M228.5,224.9c1-2.5,2.3-5,3.6-7.4l1.9-3.6c0.3-0.6,0.6-1.2,0.9-1.8c0.3-0.6,0.6-1.2,0.8-1.9c0,1.4-0.5,2.7-1,4
		c-0.5,1.3-1.1,2.5-1.7,3.7C231.7,220.4,230.2,222.7,228.5,224.9z"/>
</g>
<g>
	<path class="st4" d="M224.3,218.1c1-1.3,1.8-2.5,2.6-3.8c0.4-0.6,0.8-1.3,1.1-2c0.4-0.7,0.7-1.4,1.1-2.1c0,1.6-0.6,3.2-1.4,4.5
		c-0.4,0.7-0.9,1.3-1.5,1.9C225.7,217.3,225.1,217.8,224.3,218.1z"/>
</g>
<g>
	<path class="st4" d="M340.2,152.3c1.2-0.4,2.4-0.4,3.6-0.2c0.6,0.1,1.2,0.3,1.8,0.6c0.5,0.3,1.1,0.8,1.2,1.5
		c-0.4-0.4-1-0.6-1.5-0.7c-0.5-0.1-1.1-0.2-1.7-0.3C342.5,152.9,341.4,152.7,340.2,152.3z"/>
</g>
<g>
	<path class="st4" d="M267.9,275.1c2.6,1.9,5.1,3.8,7.7,5.7c2.5,2,5,4,7.5,6c4.9,4.1,9.7,8.4,14.1,13.1l1.6,1.8l1.5,1.9
		c0.5,0.6,1,1.3,1.4,1.9c0.5,0.7,0.9,1.3,1.3,2.1c0.8,1.4,1.4,2.9,2,4.4c0.6,1.5,1.2,3,1.8,4.5c2.3,6,4.4,12,6.4,18.1l-3.5-8.9
		c-1.2-3-2.3-5.9-3.6-8.9l-1.8-4.4c-0.6-1.5-1.2-3-2-4.3c-0.3-0.7-0.8-1.3-1.3-2c-0.5-0.6-0.9-1.3-1.4-1.9l-1.5-1.8l-1.6-1.8
		c-4.3-4.7-9.1-9-13.8-13.2C277.8,283.3,272.9,279.2,267.9,275.1z"/>
</g>
<g>
	<path class="st4" d="M260.3,231.9c-1.1,1.6-2.2,3.1-3.1,4.8c-0.5,0.8-0.9,1.6-1.2,2.5c-0.3,0.9-0.6,1.7-0.7,2.7
		c-0.3-0.9-0.3-2-0.1-3c0.2-1,0.6-1.9,1.1-2.8c0.5-0.9,1.1-1.6,1.8-2.4C258.7,233.1,259.4,232.4,260.3,231.9z"/>
</g>
<g>
	<path class="st4" d="M262.9,232.7c-0.8,1.4-1.8,2.6-2.7,3.8c-0.5,0.6-0.9,1.2-1.4,1.8c-0.4,0.6-0.8,1.2-1.1,2
		c-0.2-0.8,0.1-1.7,0.4-2.4c0.3-0.7,0.8-1.4,1.2-2.1C260.4,234.6,261.5,233.5,262.9,232.7z"/>
</g>
<g>
	<path class="st4" d="M264.9,232.7c0.3,2.1,0.2,4.1-0.1,6.2c-0.2,1-0.4,2-0.8,3c-0.4,0.9-1,2-1.9,2.5c0.6-0.8,0.9-1.8,1.2-2.7
		c0.2-1,0.4-1.9,0.6-2.9C264.2,236.7,264.5,234.7,264.9,232.7z"/>
</g>
<g>
	<path class="st4" d="M234.8,225.6c1.3,3.5,2.5,6.9,3.8,10.4c1.4,3.4,2.7,6.8,4.4,10.1c0.8,1.6,1.7,3.2,2.7,4.7
		c1.1,1.4,2.4,2.7,3.6,4.1l3.7,4.2c1.2,1.4,2.4,2.8,3.6,4.2c-1.3-1.3-2.6-2.6-3.9-3.9l-3.9-4c-1.3-1.3-2.6-2.6-3.8-4.1
		c-1.1-1.5-2-3.2-2.9-4.8c-1.7-3.3-3-6.8-4.2-10.3c-0.6-1.8-1.2-3.5-1.7-5.3C235.8,229.1,235.2,227.4,234.8,225.6z"/>
</g>
<g>
	<path class="st4" d="M355.4,203.1c-1.5-1.1-2.7-2.4-3.7-3.9c-0.5-0.7-1-1.5-1.4-2.3c-0.2-0.4-0.4-0.8-0.5-1.3
		c-0.1-0.4-0.2-0.9-0.1-1.4c0.2,0.9,0.8,1.5,1.3,2.3l1.6,2.1C353.5,200,354.5,201.4,355.4,203.1z"/>
</g>
<g>
	<path class="st4" d="M312.1,241.9c1.7,3.8,3.1,7.6,4.5,11.5c1.4,3.9,2.8,7.7,4.1,11.6c-2.1-3.6-3.6-7.4-5.1-11.3
		C314.3,249.8,313.1,245.9,312.1,241.9z"/>
</g>
<g>
	<path class="st4" d="M299.5,234.1c3.1,5,5.9,10.1,8.6,15.3c2.7,5.2,5.2,10.5,7.6,15.8c2.3,5.4,4.5,10.8,6.5,16.3
		c2,5.5,3.7,11.1,5.1,16.8c-1-2.8-1.8-5.6-2.8-8.3c-0.9-2.8-2-5.5-3-8.2c-2.1-5.4-4.3-10.9-6.7-16.2c-2.3-5.4-4.8-10.6-7.3-15.9
		c-1.3-2.6-2.6-5.3-3.9-7.9C302.2,239.3,300.9,236.7,299.5,234.1z"/>
</g>
<g>
	<path class="st4" d="M332.3,238.5c0.1,4.8,0.2,9.6,0.2,14.5l0,14.5l-0.1,14.5l-0.1,7.2c0,2.4-0.1,4.8,0.1,7.2
		c-0.6-4.8-0.6-9.6-0.8-14.5c-0.1-4.8-0.1-9.6-0.1-14.5c0.1-4.8,0.1-9.6,0.3-14.5C331.9,248.2,332,243.3,332.3,238.5z"/>
</g>
<g>
	<path class="st4" d="M342.3,282.9c-0.7,1.7-1.1,3.6-1.4,5.4c-0.3,1.8-0.4,3.7-0.4,5.5l0,1.4l0.1,1.4c0,0.9,0.1,1.8,0.2,2.8l0.3,2.8
		c0.1,0.9,0.3,1.8,0.3,2.8c-0.3-0.9-0.6-1.8-0.8-2.7c-0.2-0.9-0.4-1.8-0.6-2.8c-0.3-1.9-0.5-3.8-0.5-5.6c0-1.9,0.2-3.8,0.6-5.6
		C340.6,286.3,341.2,284.4,342.3,282.9z"/>
</g>
<g>
	<path class="st4" d="M282.2,204.6c1.3,2.2,2.4,4.4,3.6,6.5c1.2,2.2,2.3,4.3,3.7,6.4c-1-0.8-1.9-1.7-2.6-2.7c-0.8-1-1.4-2.1-2-3.2
		c-0.6-1.1-1.1-2.3-1.6-3.4C282.9,207,282.5,205.8,282.2,204.6z"/>
</g>
<g>
	<path class="st4" d="M313.4,178.9c0.4,1.1,0.9,2.2,1.4,3.3c0.5,1.1,1,2.1,1.5,3.2c0.6,1,1.1,2.1,1.7,3c0.3,0.5,0.6,1,0.9,1.5
		l0.5,0.7l0.5,0.8c0.6,1.1,0.9,2.4,0.9,3.6c0,1.2-0.3,2.5-0.7,3.6c-0.9,2.3-2.2,4.3-3.8,6c0.7-1,1.3-2,1.8-3c0.5-1,1-2.1,1.3-3.2
		c0.3-1.1,0.5-2.2,0.5-3.3c0-1.1-0.3-2.2-0.8-3.2l-0.4-0.7l-0.5-0.7c-0.3-0.5-0.6-1-0.9-1.5c-0.6-1-1.1-2.1-1.6-3.2
		C314.6,183.5,313.8,181.2,313.4,178.9z"/>
</g>
<g>
	<path class="st4" d="M336.8,188.5c0.4,1.3,0.9,2.5,1.4,3.7c0.5,1.2,1,2.5,1.5,3.7c0.6,1.2,1.1,2.4,1.7,3.6c0.3,0.6,0.6,1.2,1,1.7
		l0.5,0.8l0.5,0.9c0.6,1.3,0.9,2.7,0.8,4.1c0,1.4-0.2,2.8-0.7,4c-0.8,2.6-2.2,5-3.8,7c0.7-1.1,1.3-2.3,1.8-3.5
		c0.5-1.2,1-2.4,1.3-3.7c0.3-1.3,0.5-2.5,0.5-3.8c0-1.3-0.3-2.5-0.8-3.7l-0.4-0.8l-0.5-0.9c-0.3-0.6-0.6-1.2-0.9-1.8
		c-0.6-1.2-1.1-2.4-1.6-3.7C338,193.7,337.2,191.1,336.8,188.5z"/>
</g>
<rect x="-284" y="166" style="fill:none;" width="234.6" height="144.1"/>
<text transform="matrix(1 0 0 1 -283.9985 174.5522)"><tspan x="0" y="0" style="font-family:'MyriadPro-Regular'; font-size:12px;">take airplane in hands in the sky</tspan><tspan x="0" y="14.4" style="font-family:'MyriadPro-Regular'; font-size:12px;">and the next cut on shot ishands putting it </tspan><tspan x="0" y="28.8" style="font-family:'MyriadPro-Regular'; font-size:12px;">either at the airport or in the ocean</tspan></text>
</svg>
