<?xml version="1.0" encoding="UTF-8"?><svg xmlns="http://www.w3.org/2000/svg" viewBox="0 0 188.83 188.83"><defs><style>.d{fill:#fefefe;}.e{fill:#d3e291;}.f{fill:#afd2dd;}.g{fill:#175960;}.h{fill:#719ba5;}</style></defs><g id="a"/><g id="b"><g id="c"><g><circle class="e" cx="94.41" cy="94.41" r="94.41"/><path class="d" d="M140.13,70.71h-.04c0-7.77,0-15.55,0-23.32,0-.64-.24-1.07-.77-1.4-2.38-1.47-4.76-2.95-7.14-4.44-4.66-2.92-9.32-5.85-13.99-8.78-.17-.1-.29-.2-.31-.41-.13-1.49-.28-2.98-.41-4.48-.15-1.81-.28-3.62-.43-5.43-.08-1-.34-1.24-1.35-1.26-.45-.01-.9-.06-1.35-.06-3.75,0-7.5,0-11.25,0-5.56-.02-11.11-.02-16.67-.09-4.29-.05-8.59-.16-12.89,.08-.57,.03-.75,.22-.77,.82-.05,2.04,0,4.08-.09,6.12-.08,1.81-.02,3.62,0,5.43,0,.26-.06,.42-.31,.56-1.15,.64-2.28,1.31-3.43,1.97-3.98,2.28-7.97,4.55-11.95,6.83-.48,.27-.73,.65-.72,1.22,.04,1.62,0,3.24,.07,4.87,.16,4.27-.02,8.54,.12,12.8,.14,4.3-.03,8.6,.11,12.91,.14,4.3-.03,8.61,.11,12.91,.13,4.25-.03,8.5,.1,12.76,.13,4.34-.02,8.67,.11,13.01,.13,4.23,0,8.47,.1,12.71,.12,5.26,.02,10.52,.14,15.77,.06,3.01,0,6.03,.02,9.05,0,.72-.02,1.43,.78,1.91,4.37,2.64,8.7,5.32,13.05,7.99,5.16,3.16,10.33,6.32,15.49,9.49,.31,.19,.63,.21,.96,.15,.8-.12,1.6-.27,2.4-.39,1.54-.24,3.09-.46,4.63-.69,1.97-.3,3.93-.61,5.9-.9,1.49-.22,2.99-.43,4.48-.66,2-.31,4.01-.63,6.01-.93,1.72-.26,3.45-.49,5.17-.75,1.54-.23,3.08-.5,4.62-.73,1.95-.29,3.91-.56,5.86-.86,1.74-.26,3.47-.56,5.2-.82,2.45-.37,4.9-.71,7.35-1.08,1.04-.16,1.19-.35,1.18-1.41,0-4-.01-8.01-.02-12.01-.01-10.81-.01-21.61-.04-32.42-.02-7.55,.03-15.11-.05-22.66-.07-7.79-.02-15.58-.02-23.37Z"/><path class="g" d="M140.13,70.71c0,7.79-.06,15.58,.02,23.37,.07,7.55,.03,15.11,.05,22.66,.03,10.81,.03,21.61,.04,32.42,0,4,.01,8.01,.02,12.01,0,1.06-.15,1.26-1.18,1.41-2.45,.37-4.9,.71-7.35,1.08-1.74,.26-3.47,.56-5.2,.82-1.95,.3-3.91,.56-5.86,.86-1.54,.23-3.08,.5-4.62,.73-1.72,.26-3.45,.49-5.17,.75-2,.3-4.01,.63-6.01,.93-1.49,.23-2.99,.43-4.48,.66-1.97,.3-3.93,.6-5.9,.9-1.54,.23-3.09,.46-4.63,.69-.8,.12-1.6,.27-2.4,.39-.33,.05-.65,.04-.96-.15-5.16-3.17-10.33-6.33-15.49-9.49-4.35-2.67-8.69-5.35-13.05-7.99-.8-.48-.77-1.19-.78-1.91-.02-3.02,.04-6.03-.02-9.05-.11-5.26-.01-10.52-.14-15.77-.1-4.24,.03-8.47-.1-12.71-.13-4.34,.02-8.67-.11-13.01-.13-4.25,.03-8.51-.1-12.76-.14-4.3,.03-8.61-.11-12.91-.14-4.3,.03-8.61-.11-12.91-.14-4.27,.04-8.54-.12-12.8-.06-1.62-.03-3.24-.07-4.87-.01-.57,.24-.95,.72-1.22,3.99-2.27,7.97-4.55,11.95-6.83,1.14-.65,2.28-1.32,3.43-1.97,.24-.14,.31-.3,.31-.56-.01-1.81-.07-3.62,0-5.43,.09-2.04,.04-4.08,.09-6.12,.01-.59,.2-.78,.77-.82,4.29-.24,8.59-.14,12.89-.08,5.56,.07,11.11,.07,16.67,.09,3.75,.01,7.5,0,11.25,0,.45,0,.9,.05,1.35,.06,1,.02,1.27,.26,1.35,1.26,.15,1.81,.28,3.62,.43,5.43,.13,1.49,.27,2.98,.41,4.48,.02,.21,.15,.31,.31,.41,4.66,2.92,9.32,5.85,13.99,8.78,2.37,1.49,4.75,2.97,7.14,4.44,.53,.33,.77,.76,.77,1.4-.01,7.77,0,15.55,0,23.32h.04Zm-46.66-38.48c.17,0,.33,.02,.5,.01,4.04-.15,8.09-.29,12.13-.45,3.34-.13,6.68-.27,10.03-.4,.25,0,.39-.03,.36-.36-.25-2.73-.49-5.47-.72-8.2-.02-.28-.11-.37-.39-.37-1.77,0-3.55,0-5.32,0-.57-.09-1.13-.09-1.7,0-7.57-.03-15.14-.06-22.71-.09-.08-.01-.16-.04-.25-.04-3.68,.03-7.36-.12-11.04,0-.39,.01-.33,.22-.33,.44-.03,3.25-.05,6.5-.1,9.75,0,.43,.13,.54,.54,.52,6.14-.25,12.28-.48,18.41-.72,.2,0,.4,.03,.58-.09Zm1.7,17.62c.11,.04,.22,.03,.32-.05l2.84-.18c.1,.05,.19,.04,.27-.03l2.52-.19c.13,.1,.26,.06,.39-.01l1.04-.07c.1,.05,.19,.04,.27-.03l5.53-.4h.19c9.78-.72,19.55-1.43,29.33-2.14-.13-.21-.26-.3-.4-.39-4.02-2.52-8.05-5.05-12.08-7.57-1.39-.87-2.75-1.78-4.18-2.58-.56-.5-1.21-.86-1.87-1.21l-.15-.09c-.32-.28-.66-.51-1.06-.65-.55-.34-1.17-.61-1.45-1.26,.02-.36-.24-.29-.45-.28-1.18,.04-2.36,.08-3.54,.14-.88,.04-1.76,0-2.63,.14h-.31c-.57-.02-1.14-.04-1.7,.1l-1.72,.05c-.09-.04-.18-.03-.27,.01-1.45,.05-2.9,.1-4.36,.15-1.37,.05-2.74,.12-4.11,.18-.8,.03-1.6,0-2.4,.12-.1-.09-.2-.06-.3,0l-2.04,.06c-.72,.01-1.43,0-2.15,.04-5.12,.2-10.23,.4-15.35,.61-.21,0-.51-.11-.6,.1-.08,.19,.19,.36,.32,.52,2.58,3.24,5.16,6.48,7.74,9.71,1.45,1.82,2.91,3.63,4.35,5.46,.22,.28,.43,.36,.76,.33,.5-.05,1-.07,1.5-.12,1-.09,1.99-.18,2.98-.28l2.75-.19Zm-1.46,101.76h.04c.25,.02,.5,.04,.73-.1l1.23-.16c.1,.05,.19,.03,.27-.05l.51-.08c.1,.1,.2,.05,.29-.02,2.03-.27,4.05-.53,6.08-.8,2.39-.32,4.77-.65,7.16-.97,5.67-.76,11.34-1.53,17.01-2.29,3.78-.51,7.56-1.02,11.34-1.51,.45-.06,.59-.19,.59-.67-.05-18.24-.08-36.49-.12-54.73-.01-7.69-.02-15.38-.02-23.07,0-.39-.07-.53-.49-.48-.93,.11-1.87,.17-2.8,.25-4.95,.45-9.9,.89-14.85,1.34-3.37,.3-6.73,.59-10.1,.89-3.47,.31-6.94,.61-10.4,.93-2.38,.22-4.76,.44-7.14,.66-.08,0-.16-.03-.24-.03-1.43,.13-2.86,.28-4.3,.38-.5,.03-.66,.17-.66,.7,.06,14.19,.09,28.38,.13,42.56,.02,9.92,.04,19.83,.06,29.75,0,2.6,.02,5.19,.01,7.79,0,.38,.1,.5,.48,.44,.91-.14,1.83-.22,2.73-.37,.82-.13,1.66-.14,2.47-.38Zm-6.98-39.9h-.21c0-12.14,0-24.29,0-36.43,0-1.21,0-2.41,0-3.62,0-.17,.07-.42-.2-.44-.36-.03-.64-.23-.97-.35-1.45-.51-2.89-1.03-4.33-1.55-7.59-2.72-15.18-5.45-22.76-8.17-.54-.19-.53-.19-.53,.4,.14,17.05,.28,34.1,.42,51.15,.06,7.72,.13,15.44,.18,23.16,0,.36,.05,.61,.42,.81,5.13,2.83,10.24,5.68,15.36,8.52,2.15,1.19,4.28,2.4,6.44,3.56,1.91,1.02,3.76,2.13,5.65,3.18,.52,.29,.54,.26,.54-.34,0-13.3,0-26.6,0-39.9ZM59.19,43.05l.03,.13c.83-.08,1.66-.15,2.49-.23,3.5-.33,6.99-.66,10.49-.98,1.91-.18,3.83-.36,5.74-.55,.14-.01,.34,.03,.41-.11,.09-.18-.12-.29-.21-.41-1.49-1.87-2.99-3.74-4.47-5.62-.22-.28-.38-.32-.7-.13-3.55,2.05-7.11,4.08-10.67,6.11-1.04,.6-2.08,1.19-3.12,1.79Zm3.84,1.11v.13c7.35,1.83,14.69,3.66,22.05,5.5,.03-.24-.1-.34-.19-.45-1.5-1.89-3.06-3.73-4.49-5.67-.64-.88-1.3-1.07-2.34-.96-4.04,.44-8.09,.78-12.14,1.16-.96,.09-1.93,.19-2.89,.29Z"/><path class="h" d="M86.73,111.72c0,13.3,0,26.6,0,39.9,0,.6-.01,.63-.54,.34-1.89-1.05-3.75-2.16-5.65-3.18-2.16-1.16-4.3-2.37-6.44-3.56-5.12-2.84-10.24-5.69-15.36-8.52-.36-.2-.41-.45-.42-.81-.06-7.72-.12-15.44-.18-23.16-.14-17.05-.28-34.1-.42-51.15,0-.59,0-.59,.53-.4,7.59,2.72,15.18,5.45,22.76,8.17,1.44,.52,2.88,1.04,4.33,1.55,.32,.11,.61,.32,.97,.35,.27,.02,.2,.27,.2,.44,0,1.21,0,2.41,0,3.62,0,12.14,0,24.29,0,36.43h.21Z"/><path class="d" d="M95.19,33.61c.8-.12,1.6-.08,2.4-.12,1.37-.06,2.74-.12,4.11-.18,1.45-.06,2.9-.1,4.36-.15,.1,.15,.19,.14,.27-.01l1.72-.05c.74-.26,1.38-.24,1.74-.11,.11,.02,6.51-.39,6.83-.28,.29,.65,.97,1.21,1.52,1.55,.43,.23,.8,.36,1.06,.65,.05,.03,.62,.34,.67,.37,.04,.14,.62,.12,1.35,.93,1.43,.8,2.79,1.71,4.18,2.58,4.03,2.52,8.05,5.04,12.08,7.57,.14,.09,.27,.18,.4,.39-9.78,.71-19.55,1.42-29.33,2.13-.07-.07-.13-.06-.19,0l-5.53,.4c-.11-.1-.2-.11-.28,.04l-1.01,.07c-.14-.15-.28-.12-.41,0l-2.52,.19c-.13-.12-10.88,1.27-11.25,.85-1.25-1.4-5.7-7.27-12.59-16.03,.19-.17,17.04-.77,18.02-.75h.13l1.98-.05c.1,.1,.2,.09,.3,0Z"/><path class="d" d="M85.65,22.38c7.57,.03,15.14,.06,22.71,.09,.57,.16,1.13,.16,1.7,0,1.77,0,3.55,.01,5.32,0,.28,0,.37,.09,.39,.37,.23,2.73,.47,5.47,.72,8.2,.03,.33-.11,.35-.36,.36-3.34,.13-6.68,.27-10.03,.4-4.04,.15-8.09,.3-12.13,.45-.17,0-.33,0-.5-.01-.05-.2,.09-.22,.23-.22,.22,0,.43,0,.65,0,.21,0,.37-.07,.45-.26,.09-.22-.09-.35-.25-.43-.28-.14-.34-.4-.4-.66-.24-.97-.38-1.96-.31-2.96,.01-.21-.02-.45-.17-.56-.35-.27-.34-.62-.34-.99,0-.43,0-.87,0-1.31,0-.11,0-.3-.05-.33-.48-.21-.34-.63-.34-.99,0-.78-.18-.96-.99-.96-1.96,0-3.91,0-5.87-.02-.15,0-.39,.13-.43-.17Z"/><path class="h" d="M59.19,43.05c1.04-.6,2.08-1.19,3.12-1.79,3.56-2.04,7.12-4.06,10.67-6.11,.32-.19,.48-.14,.7,.13,1.48,1.88,2.98,3.74,4.47,5.62,.1,.12,.3,.23,.21,.41-.07,.14-.27,.1-.41,.11-1.91,.19-3.83,.37-5.74,.55-3.5,.33-6.99,.66-10.49,.98-.83,.08-1.66,.15-2.49,.23l-.03-.13Z"/><path class="h" d="M63.03,44.16c.96-.1,1.93-.2,2.89-.29,4.05-.38,8.1-.72,12.14-1.16,1.04-.11,1.7,.08,2.34,.96,1.42,1.94,2.98,3.78,4.49,5.67,.09,.11,.22,.21,.19,.45-7.36-1.84-14.7-3.67-22.04-5.5v-.13Z"/><path class="d" d="M92.42,50.04c-.13-.26,.07-.23,.21-.24,.81-.06,1.62-.11,2.42-.16,.2-.01,.18,.08,.12,.21-.92,.06-1.83,.13-2.75,.19Z"/><path class="f" d="M110.05,22.47c-.57,.15-1.13,.16-1.7,0,.57-.09,1.13-.09,1.7,0Z"/><path class="d" d="M101.12,49.4c.13-.11,.26-.14,.39-.01-.13,.07-.26,.12-.39,.01Z"/><path class="d" d="M93.71,151.61l-.1-.15s.1-.03,.13-.02c.08,.04,.05,.1,0,.16h-.04Z"/><path class="d" d="M98.33,49.62c.08-.15,.17-.13,.27-.03-.08,.07-.17,.09-.27,.03Z"/><path class="d" d="M102.55,49.32c.08-.14,.17-.12,.27-.03-.08,.07-.17,.08-.27,.03Z"/><path class="f" d="M95.19,33.61c-.1,.1-.2,.1-.3,0,.1-.07,.2-.09,.3,0Z"/><path class="f" d="M106.33,33.16c-.08,.15-.18,.17-.27,.01,.09-.05,.18-.05,.27-.01Z"/><path class="f" d="M96.5,151.23c.09-.09,.18-.14,.29-.02-.09,.08-.19,.12-.29,.02Z"/><path class="f" d="M95.71,151.36c.07-.14,.16-.16,.27-.05-.08,.07-.17,.1-.27,.05Z"/><path class="d" d="M108.35,48.89c.06-.07,.12-.08,.19,0h-.19Z"/></g></g></g></svg>