<?xml version="1.0" encoding="UTF-8"?><svg xmlns="http://www.w3.org/2000/svg" viewBox="0 0 188.83 188.83"><defs><style>.d{fill:none;}.e{fill:#f39403;}.f{fill:#80c8e5;}.g{fill:#436a17;}</style></defs><g id="a"/><g id="b"><g id="c"><g><circle class="f" cx="94.41" cy="94.41" r="94.41"/><g><g><path class="e" d="M104.84,63.07h0s0,0-.01,0h0Z"/><path class="e" d="M155.61,96.82c-.36-1.33-.68-2.67-.89-4.03-.16-1.02-.29-2.05-.66-3.01-1.33-3.45-2.99-6.73-5.16-9.75-1.19-1.66-2.29-3.38-3.45-5.07-.82-1.19-1.74-2.32-2.79-3.32-1.13-1.06-2.3-2.08-3.48-3.09-2.29-1.96-4.58-3.92-7.1-5.6-1.83-1.22-3.79-2.22-5.72-3.29-2.92-1.62-5.77-3.36-9.05-4.23-1.89-.5-3.74-1.17-5.74-1.04-.3,.02-.6,.04-.92-.07-.9-.3-1.8-.62-2.73-.83-1.69-.38-3.42-.48-5.15-.49-.61,0-.84,0-.92-.26-.14,.01-.28,.03-.43,.03-.04,.25-.08,.5-.14,.74-.16,.69-.15,1.42-.2,2.13-.02,.26,.21,.44,.37,.54,.87,.52,.96,1.46,1.26,2.28,.26,.7,.47,1.42,.75,2.15,.02-.41,.23-.61,.58-.79,.38-.19,.64-.08,.97,.08,.91,.43,1.35,1.32,2.04,1.96,.28,.26-.09,.4-.28,.47-.42,.15-.85,.27-1.27,.39-.24,.07-.48,.13-.66,.33,.85,.02,1.64-.24,2.38-.63,.27-.14,.45-.14,.64,.11,.24,.31-.1,.35-.21,.48-.09,.12-.24,.2-.35,.3-.46,.45-.86,.88-1.62,.39-.43-.28-.88,.02-1.04,.66-.12,.48-.41,.44-.74,.43-.45-.02-.92-.02-1.15-.5-.09-.18-.08-.41,.08-.6,.17-.2,.33-.14,.52-.04,.27,.15,.58,.16,.71-.13,.12-.27-.18-.39-.38-.49-.41-.21-.68-.58-1-.88-.35-.33-.74-.56-1.25-.49-.32,.04-.56,.11-.56,.51-.01,.56-.45,.61-.87,.63-.15,0-.3-.06-.45-.1-.17-.05-.35-.14-.48,.04-.11,.15-.12,.35,0,.49,.33,.41,.05,.52-.28,.65-.71,.28-1.38,.05-2.02-.22-.88-.38-1.88-.47-2.67-1.07-.33-.25-.7-.46-1.05-.69-.11-.07-.25-.15-.18-.32,.06-.14,.21-.16,.35-.16,.7,0,1.4-.01,2.1,0,1.23,.03,1.15-.37,1.06-1.44-.01-.14-.11-.29-.08-.45,.04-.28,.13-.45,.45-.23,.41,.28,.86,.5,1.35,.63,.32,.09,.43-.02,.55-.31,.38-.87,.32-1.79,.4-2.7,.11-1.33,.2-2.65,.3-3.98-.23,.02-.46,.05-.69,.05-3.53,.03-7,.49-10.47,1.12-2.6,.48-5.14,1.16-7.65,1.94-1.97,.61-3.9,1.36-5.73,2.32-2.52,1.33-5.07,2.6-7.4,4.26-1.35,.97-2.73,1.89-3.95,3.03-.74,.69-1.39,1.49-2.28,2.02-.7,.42-1.46,.78-2.04,1.33-1.57,1.49-3,3.12-3.99,5.08-.33,.64-.64,1.27-1.05,1.87-.68,1-1.41,1.96-1.92,3.09-.23,.51-.49,1.08-.96,1.49-.69,.6-1.19,1.33-1.5,2.2-.36,1-.38,2.12-1.04,3-.99,1.32-1.48,2.86-1.98,4.4-.93,2.81-1.15,5.74-1.38,8.65-.15,1.94-.41,3.85-.71,5.77-.11,.69-.32,1.36-.31,2.07,.02,1.23,.03,2.45,0,3.68-.05,2.95,.34,5.85,.91,8.73,.24,1.22,.57,2.41,.95,3.59,.36,1.1,.69,2.21,1.16,3.28,.37,.85,.93,1.6,1.24,2.48,.41,1.16,.67,2.39,1.27,3.47,1.01,1.8,2,3.6,3.11,5.34,2.73,4.29,6.03,8.08,9.74,11.54,1.96,1.83,4.09,3.46,6.36,4.9,1.98,1.25,4.06,2.29,6.24,3.15,.52,.21,1.15,.26,1.53,.76l.02,.02c22.6,4.92,41.17,3,55.12-3.91,.05-.03,.1-.05,.15-.07,2.11-1.19,3.95-2.76,5.83-4.28,2.92-2.36,5.22-5.27,7.5-8.2,1.87-2.41,3.5-4.98,4.92-7.68,.97-1.84,1.82-3.72,2.61-5.64,.54-1.31,.92-2.68,1.54-3.96,.73-1.5,1.21-3.13,1.41-4.75,.32-2.7,.72-5.39,.88-8.11,.28-4.79,.03-9.52-1.21-14.17Zm-58.47-32.25c.23-.13,.43-.08,.62-.08,.72-.02,1.43,.02,2.14-.13,.65-.14,1.23,.09,1.8,.45,.65,.41,1.31,.88,2.29,.81-1.78,1.11-5.88,0-6.85-1.05Z"/></g><g><path class="d" d="M99.98,32.38c-.28-.01-.42,.22-.62,.77-.05,0-.09,.01-.14,.02,.05,0,.09-.01,.14-.02,.2-.55,.34-.78,.62-.77Z"/><path class="g" d="M87.2,50.4c.53-.67,.98-1.42,1.06-2.29,.04-.41,.2-.62,.52-.78,2.15-1.07,4.45-1.39,6.82-1.34,.4,0,.98,.17,1,.63,.05,.89,.7,1.09,1.3,1.37,.55,.26,.94,.65,1.15,1.24,.4,1.12,.43,2.28,.37,3.45h0l-.06,.29c-.1,1.33-.19,2.65-.3,3.98-.08,.91-.02,1.83-.4,2.7-.13,.29-.23,.4-.55,.31-.49-.13-.94-.35-1.35-.63-.32-.22-.41-.05-.45,.23-.02,.16,.07,.3,.08,.45,.09,1.07,.18,1.46-1.06,1.44-.7-.02-1.4,0-2.1,0-.14,0-.29,.01-.35,.16-.07,.16,.07,.24,.18,.32,.35,.23,.72,.44,1.05,.69,.8,.6,1.79,.69,2.67,1.07,.64,.27,1.31,.5,2.02,.22,.33-.13,.61-.24,.28-.65-.12-.15-.11-.34,0-.49,.13-.19,.31-.1,.48-.04,.15,.05,.3,.11,.45,.1,.42-.02,.85-.07,.87-.63,0-.4,.25-.47,.56-.51,.51-.07,.9,.16,1.25,.49,.33,.3,.59,.67,1,.88,.2,.1,.51,.22,.38,.49-.13,.29-.44,.27-.71,.13-.18-.1-.35-.16-.52,.04-.16,.19-.17,.42-.08,.6,.23,.48,.7,.48,1.15,.5,.33,.01,.61,.05,.74-.43,.16-.64,.61-.94,1.04-.66,.76,.49,1.16,.06,1.62-.39,.11-.11,.26-.19,.35-.3,.11-.14,.45-.17,.21-.48-.2-.25-.37-.25-.64-.11-.74,.39-1.53,.65-2.38,.63,.17-.2,.42-.26,.66-.33,.43-.13,.86-.24,1.27-.39,.19-.07,.56-.21,.28-.47-.7-.64-1.14-1.54-2.04-1.96-.33-.15-.59-.27-.97-.08-.35,.18-.56,.38-.58,.79-.28-.73-.49-1.45-.75-2.15-.3-.82-.39-1.75-1.26-2.28-.16-.09-.39-.28-.37-.54,.05-.71,.04-1.44,.2-2.13,.27-1.21,.37-2.42,.27-3.64-.06-.76-.16-1.57-.89-2.05-.4-.26-.85-.46-1.26-.71-.67-.42-.87-1.06-.44-1.73,.51-.81,1.7-.93,2.32-.22,.14,.16,.28,.26,.46,.32,.13-2.56,.21-5.13,.73-7.65,.15-.71,.32-1.4,.22-2.12-.09-1.1-.54-2.03-1.36-2.77h0c-.13,.06-.19,0-.23-.11h0c-.3-.51-.78-.62-1.29-.54-.47,.07-.56,.47-.59,.88,.05,0,.09-.01,.14-.02,.2-.55,.34-.78,.62-.77-.28-.01-.42,.22-.62,.77-.05,0-.09,.01-.14,.02l-.08,.14c-.11,.16,.2,.38-.09,.51-.02,.22-.04,.44-.06,.66-.07,.55-.17,1.1-.21,1.66-.2,2.5-.23,5.01-.63,7.49-.06,.39-.2,.63-.57,.73-1.02,.1-2.05,0-3.08,.15-1.74,.27-3.47,.55-5.1,1.26-.48,.21-1.25,.05-1.36-.27-.13-.37-.23-.74-.36-1.11-.78-2.16-1.9-4.12-3.55-5.74-1.23-1.2-2.67-2.14-4.08-3.12-1.16-.8-2.29-1.62-3.59-2.18-2.07-.9-4.22-1.56-6.43-2.04-1.56-.34-3.13-.63-4.73-.56-.51,.02-1.19-.12-1.29,.73-.02,.18-.24,.24-.41,.28-.21,.04-.42,.08-.63,.12-.96,0-1.93,0-2.89,.01-.11-.04-.22-.04-.32,.02-.4-.2-.79-.07-1.17,.05-.19,.06-.3,.18-.25,.39,.14,.58-.24,.76-.69,.87-.64,.14-1.31,.2-1.94,.42-.57,.19-1.01,.47-1.08,1.14-.05,.42-.33,.75-.69,.96-.93,.56-1.79,1.23-2.61,1.94-.68,.58-1.52,1.16-1.66,2.04-.13,.8-.58,1.2-1.1,1.59-1.03,.77-1.83,1.71-2.41,2.84-.1,.19-.23,.42-.19,.6,.16,.84-.42,1.27-.91,1.76-.23,.23-.61,.41-.6,.74,.02,.46-.24,.72-.49,1-.4,.45-.81,.89-1.22,1.33-.2,.22-.46,.5-.41,.74,.08,.41-.15,.62-.34,.85-.56,.65-.93,1.32-.49,2.19-.29,.15-.59,.28-.87,.44-.18,.1-.41,.2-.39,.46,.03,.49-.3,.77-.6,1.08-.19,.2-.52,.43-.45,.64,.24,.7-.27,1.08-.56,1.55-.2,.33-.57,.61-.52,1.01,.08,.7-.18,1.26-.48,1.86-.23,.46-.48,.93-.55,1.46,0,.03,.02,.06,.02,.08,0,.01-.02,.02-.04,.03-.2,.24-.06,.55-.2,.81h0l-.13,.11h0c-1.2,1.42-2.1,3.02-2.83,4.72-.3,.71-.51,1.45-1.12,1.99-.69,.61-.55,1.56-.85,2.34-.04,.09,.03,.19,.15,.19-.14,.14-.14,.28-.02,.42,.61-.54,1.21-1.08,1.82-1.61,2.31-2.02,4.9-3.66,7.43-5.37,1.47-.99,3.03-1.91,4.64-2.69,2.2-1.06,4.44-2.05,6.72-2.92,2.5-.95,5.05-1.72,7.64-2.39,2.82-.73,5.68-1.27,8.56-1.65,1.8-.24,3.61-.14,5.41-.07,2.38,.1,4.7-.19,6.93-1.02,2.42-.89,4.4-2.43,6-4.43Z"/><path class="g" d="M104.3,62.66c-.57-.36-1.49-1.53-2.15-1.39-.71,.16-3.8,1.58-4.52,1.6-.19,0-8.7-3.47-.68,1.76,.97,1.05,5.27,2.11,7.05,.99,7.77-4.83,.95-2.54,.3-2.95Z"/><path class="g" d="M84.61,160.6v.06l.06-.02s0-.03-.01-.04c-.01,0-.03,0-.05,0Z"/><polygon class="g" points="122.12 157.99 122.11 157.99 122.11 158 122.12 158 122.12 157.99"/><path class="g" d="M122.16,157.95l-.04,.04s.02,0,.03-.01c0,0,0-.02,0-.03Z"/><path class="g" d="M101.81,52.01c.02-2.18-.19-4.35-.07-6.53-.19-.06-.33-.16-.46-.32-.62-.71-1.8-.58-2.32,.22-.43,.67-.23,1.31,.44,1.73,.41,.26,.86,.45,1.26,.71,.73,.48,.83,1.29,.89,2.05,.07,.97-.49,5.13-.65,6.09,.15,0,.7,.45,.84,.43-.05-.15,.06-4.03,.07-4.4Zm-1.19-5.92c-.04,.36-.03,.83-.5,.95-.27,.07-1.01-.82-1.01-1.17,0-.44,.26-.66,.58-.7,.6-.01,.98,.37,.92,.92Z"/></g></g></g></g></g></svg>