<?xml version="1.0" encoding="UTF-8"?><svg xmlns="http://www.w3.org/2000/svg" viewBox="0 0 87.61 116.77"><defs><style>.e{fill:#efc3a5;}.f{fill:#f1ae7e;}.g{fill:#ef975b;}</style></defs><g id="a"/><g id="b"><g id="c"><g id="d"><g><path class="g" d="M43.68,0h.28c.2,.06,.41,.01,.62,.03,.17-.02,.35,.03,.52-.03h.11c.11,.06,.23,.01,.35,.03,.1,0,.21,0,.31,0,1.88,0,3.74,.24,5.6,.56,2.33,.4,4.62,1.01,6.85,1.79,2.14,.75,4.21,1.67,6.22,2.75,1.97,1.06,3.84,2.26,5.63,3.6,1.18,.89,2.31,1.85,3.4,2.85,2.75,2.53,5.12,5.37,7.14,8.5,1.64,2.54,2.99,5.22,4.07,8.04,.86,2.25,1.53,4.55,2.01,6.91,.3,1.49,.53,2.99,.67,4.5,.07,.78,.1,1.57,.12,2.36,0,.06-.02,.11,.03,.16v.11c-.06,.12-.02,.25-.03,.38,0,.18,0,.37,0,.55,0,.44,0,.87,0,1.31,0,.1,0,.2,0,.3,.01,.12-.03,.25,.03,.37v.11c-.08,.45-.05,.9-.09,1.35-.12,1.34-.34,2.67-.62,3.99-.52,2.51-1.24,4.97-2.09,7.4-.79,2.29-1.69,4.54-2.65,6.76-1.08,2.48-2.24,4.92-3.48,7.33-1.13,2.21-2.31,4.38-3.54,6.54-1.24,2.19-2.54,4.35-3.86,6.48-1.57,2.53-3.22,5.02-4.9,7.48-1.78,2.61-3.63,5.18-5.55,7.69-1.71,2.25-3.48,4.46-5.32,6.61-1.83,2.16-3.76,4.23-5.8,6.18-1.28,1.22-2.62,2.37-4.16,3.25-1.14,.65-2.28,.67-3.43,.02-1.13-.64-2.14-1.44-3.11-2.29-.8-.7-1.58-1.42-2.33-2.18-1.16-1.18-2.29-2.4-3.39-3.65-2.68-3.03-5.19-6.2-7.61-9.45-1.75-2.34-3.43-4.74-5.08-7.16-2.24-3.3-4.38-6.67-6.42-10.09-1.23-2.07-2.42-4.17-3.57-6.29-1.12-2.06-2.19-4.15-3.2-6.26-1.35-2.8-2.6-5.64-3.7-8.54-1.01-2.66-1.9-5.35-2.58-8.11-.44-1.76-.78-3.54-.98-5.35-.17-1.52-.18-3.05-.12-4.57,.02-.46,0-.93,.03-1.39,.08-1.56,.28-3.1,.54-4.63,.51-3,1.32-5.91,2.45-8.73,1.25-3.13,2.83-6.07,4.75-8.84,.98-1.4,2.04-2.74,3.17-4.03,.88-1,1.81-1.95,2.77-2.86,2.49-2.35,5.22-4.38,8.19-6.09,2.64-1.52,5.41-2.76,8.31-3.7,2.51-.82,5.07-1.39,7.68-1.75,1.3-.18,2.6-.3,3.91-.29,.12,0,.25,0,.37,0,.13,0,.26,0,.39,0,.15,0,.3,0,.45,0,.21-.02,.43,.03,.63-.03Z"/><path class="f" d="M87.56,44.46v-1.38s.04-.02,.05,0v1.37s-.03,.03-.05,0Z"/><path class="f" d="M43.68,0c-.2,.12-.42,.03-.63,.05-.02-.01-.02-.03-.01-.04,0-.01,.01-.02,.02-.02h.63Z"/><path class="f" d="M44.6,.05c-.21-.02-.43,.06-.63-.05h.63s.02,.02,.02,.03c0,.01-.01,.02-.02,.02Z"/><path class="f" d="M87.61,43.08s-.03,0-.05,0v-.57s.03-.02,.05,0v.57Z"/><path class="f" d="M44.6,.05s0-.04,0-.05h.51c-.16,.12-.34,.03-.51,.05Z"/><path class="f" d="M43.05,0s0,.04,0,.05h-.46s-.02-.03,0-.04c0,0,.01-.01,.02-.01h.46Z"/><path class="f" d="M41.8,.05s0-.03,0-.05h.4s.03,.02,.02,.03c0,0-.01,.01-.02,.01h-.4Z"/><path class="f" d="M42.2,.05s0-.03,0-.05h.4V.05h-.4Z"/><path class="f" d="M45.57,.05c-.12,0-.24,.05-.35-.05h.34s.02,.02,.02,.03c0,.01,0,.02-.02,.02Z"/><path class="f" d="M45.57,.05v-.05h.34s0,.03,0,.05h-.34Z"/><path class="f" d="M87.61,42.51s-.03,0-.05,0c.02-.11-.08-.24,.05-.34v.34Z"/><path class="f" d="M87.61,45.08c-.13-.1-.03-.23-.05-.34,.01-.03,.03-.03,.05,0v.34Z"/><path class="f" d="M87.61,44.74s-.03,0-.05,0v-.28s.03,0,.05,0v.28Z"/><path class="e" d="M43.84,14.59c16.08,0,29.21,13.15,29.17,29.21-.03,16.11-13.12,29.19-29.21,29.18-16.09-.01-29.19-13.13-29.17-29.21,.02-16.1,13.11-29.18,29.2-29.18Z"/></g></g></g></g></svg>