<?xml version="1.0" encoding="UTF-8"?><svg xmlns="http://www.w3.org/2000/svg" viewBox="0 0 188.83 188.83"><defs><style>.e{fill:#efc06f;}.f{fill:#ba8735;}.g{fill:#bfdba1;}.h{fill:#d3a157;}</style></defs><g id="a"/><g id="b"><g id="c"><g id="d"><g><circle class="g" cx="94.41" cy="94.41" r="94.41"/><path class="e" d="M42.92,131.43c-1.34-1.76-2.26-3.73-2.87-5.83-1.15-3.92-1.23-7.95-1.1-12.01,.14-4.57,1.5-8.9,2.37-13.32,.52-2.66,.93-5.33,1.77-7.93,1.34-4.17,3.39-7.89,6.46-11.04,1.96-2.01,3.48-4.36,4.99-6.71,2.68-4.18,5.78-8.03,9.36-11.46,3.26-3.11,6.88-5.77,10.78-8.03,4.49-2.6,9.39-4.11,14.37-5.38,2.75-.7,5.29-1.91,7.91-2.94,4.16-1.63,8.38-3.11,12.75-4.06,2.55-.55,5.15-.79,7.74-1.02,3.58-.31,7.16-.51,10.76-.54,2.62-.02,5.1,.32,7.5,1.48,2.89,1.4,5.99,2.33,8.88,3.75,3.62,1.78,7.01,3.91,10.06,6.56,.3,.26,.56,.57,.83,.85-.29,.18-.1,.38,.01,.54,.81,1.2,1.59,2.42,2.26,3.7,.44,.84,.9,1.68,1.36,2.52-.42-.08-.7-.54-1.08-.23-.36,.29-.32,.75-.19,1.18,.08,.25,.14,.51,.23,.76,.69,1.84,1.63,3.57,2.27,5.44,.11,.32,.36,.73,.76,.74,.31,0,.33-.43,.49-.67,.05-.08,.08-.21,.23-.19,.09,.38,.04,.78,.12,1.18,.42,2.15,.47,4.31,.1,6.47-.31,1.79-.81,3.52-1.56,5.2-.9,2.02-2.08,3.84-3.43,5.54-1.37,1.72-3.09,3.12-4.83,4.45-1.53,1.16-3.16,2.17-4.78,3.21-1.81,1.16-3.71,2.15-5.53,3.31-1.84,1.17-3.78,2.2-5.6,3.41-2.35,1.56-4.71,3.11-6.82,4.99-.75,.67-1.56,1.3-2.21,2.09-.68,.83-1.38,1.65-2.13,2.41-1.45,1.46-2.72,3.08-4.17,4.53-1.2,1.21-2.4,2.43-3.65,3.58-1.47,1.35-2.96,2.69-4.6,3.84-.75,.52-1.51,1.02-2.29,1.5-1.08,.67-2.24,1.14-3.38,1.66-2.02,.92-4.14,1.59-6.27,2.12-1.61,.4-3.27,.74-4.84,1.25-1.73,.56-3.51,1.04-5.13,1.96-.82,.46-1.8,.75-2.65,1.19-2.58,1.34-5.29,2.37-8.04,3.27-1.98,.65-4.01,1.23-6.1,1.54-2.09,.31-4.19,.69-6.3,.72-4.55,.07-9.09,.09-13.59-.98-2.73-.65-5.26-1.75-7.82-2.79-.44-.18-.99-.21-1.35-.57-.58-.59-1.44-.69-2.05-1.22Zm26.16-56.35c.04-.41-.21-.62-.53-.81-1.86-1.12-3.92-1.71-6.01-2.22-1.04-.25-2.05-.26-3.02,.25-.17,.09-.45,.18-.43,.41,.03,.24,.3,.28,.5,.3,.49,.03,.91,.25,1.36,.43,2.12,.85,4.02,2.14,6.14,3,1.07,.44,2.02-.18,1.98-1.36Zm27.51,40.13c0-.15,.01-.36,0-.57,0-.13-.06-.26-.09-.39-.4-2.27-1.62-4.11-3.01-5.86-.46-.58-.91-1.17-1.57-1.55-.17-.1-.36-.28-.58-.12-.23,.17-.22,.44-.15,.66,.18,.55,.41,1.08,.77,1.56,1.06,1.39,1.76,2.95,2.11,4.67,.18,.91,.43,1.8,.67,2.69,.17,.63,.61,.82,1.21,.54,.69-.32,.68-.94,.66-1.63Zm-38.29-19.32c-.5-.03-.94,.16-1.41,.26-.28,.06-.53,.19-.56,.49-.04,.34,.2,.53,.48,.66,.73,.32,1.45,.65,2.2,.93,1.47,.55,2.75,1.51,4.26,1.94,.51,.14,1.2,.6,1.59-.07,.38-.67-.17-1.22-.62-1.65-1.66-1.57-3.71-2.29-5.94-2.56Zm24.11-41.75c-.51-.02-1.02,0-1.5,.17-.42,.14-1.06,.2-.98,.73,.07,.45,.68,.41,1.1,.39,1.46-.09,2.66,.53,3.84,1.3,1.05,.68,1.74,1.77,2.91,2.33,.66,.31,1.08,.12,1.45-.36,.37-.49,.4-1-.07-1.5-.44-.48-.95-.85-1.51-1.16-1.65-.91-3.29-1.85-5.25-1.89Zm58.98,19.46c0,.26-.03,.48,0,.68,.65,3.45,1.65,6.8,2.94,10.06,.11,.27,.16,.72,.52,.73,.44,0,.65-.41,.82-.78,.1-.22,.19-.43,.2-.68,.03-1.02-.14-2-.58-2.94-1.04-2.21-2.45-4.23-3.34-6.51-.08-.22-.18-.45-.56-.56Zm-19.19,18.19c-.1-.34-.14-.73-.32-1.09-1.24-2.44-2.84-4.65-4.37-6.91-.28-.41-.65-.75-.99-1.12-.06-.07-.18-.14-.26-.12-.17,.03-.15,.2-.13,.33,.03,.15,.11,.3,.16,.45,1.11,2.87,2.75,5.51,3.51,8.52,.06,.22,.21,.43,.35,.62,.39,.51,.94,.31,1.4,.2,.36-.08,.63-.39,.64-.87Zm-79.91,28.13c-.37,.21-1.14-.02-1.24,.65-.08,.6,.49,.86,1.02,1.04,.35,.12,.69,.27,1.02,.43,.97,.45,1.79,1.12,2.66,1.71,.38,.26,.86,.58,1.3,.13,.47-.47,.08-.86-.24-1.22-.07-.08-.1-.19-.17-.27-1.16-1.28-2.45-2.34-4.36-2.47ZM130.36,41.91c.29,.23,.63,.36,1,.4,.43,.05,.83,.18,1.2,.4,1.15,.67,2.2,1.47,3.11,2.44,.44,.47,.94,.85,1.49,1.18,.24,.14,.44,.2,.63-.04,.16-.2,.23-.41,.02-.64-.1-.11-.13-.3-.24-.41-1.97-2.03-4.14-3.63-7.2-3.33Zm-17.24,5.71c.48,1.19,1.1,2.06,1.97,2.71,.45,.34,.83,.02,.97-.44,.18-.55-.08-.97-.52-1.31-.65-.49-1.43-.68-2.42-.97Z"/><path class="h" d="M42.92,131.43c.61,.52,1.47,.62,2.05,1.22,.36,.37,.91,.39,1.35,.57,2.56,1.05,5.09,2.14,7.82,2.79,4.5,1.07,9.04,1.05,13.59,.98,2.11-.03,4.21-.41,6.3-.72,2.09-.31,4.12-.89,6.1-1.54,2.74-.89,5.46-1.92,8.04-3.27,.85-.44,1.83-.72,2.65-1.19,1.63-.92,3.41-1.4,5.13-1.96,1.57-.51,3.22-.84,4.84-1.25,2.13-.53,4.25-1.2,6.27-2.12,1.15-.52,2.31-.99,3.38-1.66,.78-.48,1.54-.98,2.29-1.5,1.65-1.14,3.13-2.48,4.6-3.84,1.25-1.15,2.45-2.37,3.65-3.58,1.45-1.46,2.72-3.07,4.17-4.53,.75-.75,1.45-1.58,2.13-2.41,.65-.79,1.46-1.42,2.21-2.09,2.11-1.88,4.47-3.43,6.82-4.99,1.82-1.21,3.75-2.24,5.6-3.41,1.82-1.15,3.72-2.15,5.53-3.31,1.61-1.04,3.25-2.05,4.78-3.21,1.75-1.32,3.46-2.73,4.83-4.45,1.36-1.7,2.53-3.52,3.43-5.54,.75-1.68,1.25-3.41,1.56-5.2,.37-2.16,.32-4.32-.1-6.47-.08-.4-.03-.79-.12-1.18-.15-.02-.17,.11-.23,.19-.16,.24-.18,.68-.49,.67-.39,0-.65-.42-.76-.74-.64-1.86-1.58-3.6-2.27-5.44-.09-.25-.15-.51-.23-.76-.13-.43-.18-.88,.19-1.18,.38-.31,.65,.15,1.08,.23-.45-.84-.91-1.67-1.36-2.52-.67-1.28-1.46-2.5-2.26-3.7-.11-.16-.3-.35-.01-.54,2.13,2.06,3.92,4.41,5.72,6.74,1.33,1.73,2.57,3.53,3.7,5.39,1.38,2.26,1.94,4.77,2.21,7.35,.71,6.82,.09,13.54-1.57,20.18-.73,2.92-1.81,5.73-2.92,8.52-.41,1.04-1.14,1.85-1.91,2.63-3.03,3.11-6.2,6.07-9.65,8.72-3.3,2.53-6.99,4.35-10.82,5.93-2.48,1.02-5.04,1.87-7.37,3.24-2,1.17-4.23,1.97-5.8,3.82-1.01,1.2-2.25,2.18-3.45,3.2-2.94,2.51-6.17,4.62-9.19,7.03-1.73,1.38-3.87,1.97-5.9,2.77-6.89,2.7-13.98,4.78-21.18,6.5-4.96,1.18-9.97,1.15-14.96,.04-3.29-.73-6.63-1.32-9.77-2.61-1.72-.71-3.5-1.09-5.35-1.12-.76-.01-1.48-.2-2.17-.49-2.81-1.16-5.63-2.34-7.86-4.48-1.75-1.68-3.19-3.63-4.38-5.75Z"/><path class="f" d="M69.08,75.08c.03,1.19-.91,1.8-1.98,1.37-2.11-.87-4.02-2.15-6.14-3-.44-.18-.87-.39-1.36-.43-.21-.01-.48-.06-.5-.3-.03-.24,.26-.32,.43-.41,.96-.51,1.98-.5,3.02-.25,2.09,.51,4.14,1.1,6.01,2.22,.32,.19,.57,.4,.53,.81Z"/><path class="f" d="M96.59,115.21c.02,.69,.03,1.31-.66,1.63-.6,.28-1.04,.09-1.21-.54-.24-.89-.49-1.79-.67-2.69-.35-1.72-1.05-3.27-2.11-4.67-.36-.47-.59-1.01-.77-1.56-.07-.22-.08-.49,.15-.66,.22-.16,.41,.02,.58,.12,.66,.38,1.11,.97,1.57,1.55,1.4,1.75,2.62,3.6,3.01,5.86,.02,.13,.08,.26,.09,.39,.01,.21,0,.43,0,.57Z"/><path class="f" d="M58.3,95.89c2.23,.27,4.28,.98,5.94,2.56,.45,.43,1.01,.98,.62,1.65-.39,.68-1.08,.22-1.59,.07-1.51-.43-2.79-1.39-4.26-1.94-.74-.28-1.47-.62-2.2-.93-.29-.12-.52-.32-.48-.66,.03-.3,.29-.42,.56-.49,.46-.11,.91-.3,1.41-.26Z"/><path class="f" d="M82.41,54.14c1.96,.04,3.6,.97,5.25,1.89,.56,.31,1.07,.68,1.51,1.16,.46,.5,.44,1.01,.07,1.5-.36,.48-.79,.68-1.45,.36-1.16-.55-1.86-1.65-2.91-2.33-1.18-.77-2.38-1.38-3.84-1.3-.42,.02-1.03,.06-1.1-.39-.08-.53,.56-.59,.98-.73,.49-.17,.99-.19,1.5-.17Z"/><path class="f" d="M141.39,73.6c.39,.11,.48,.35,.56,.56,.89,2.28,2.31,4.3,3.34,6.51,.44,.94,.6,1.92,.58,2.94,0,.25-.09,.47-.2,.68-.17,.37-.38,.78-.82,.78-.36,0-.41-.46-.52-.73-1.29-3.26-2.29-6.61-2.94-10.06-.04-.2,0-.42,0-.68Z"/><path class="f" d="M122.2,91.79c-.02,.48-.28,.79-.64,.87-.46,.1-1.01,.3-1.4-.2-.14-.19-.3-.39-.35-.62-.76-3.01-2.4-5.65-3.51-8.52-.06-.15-.13-.29-.16-.45-.03-.12-.04-.29,.13-.33,.08-.02,.2,.05,.26,.12,.34,.37,.71,.71,.99,1.12,1.53,2.26,3.13,4.47,4.37,6.91,.19,.36,.22,.76,.32,1.09Z"/><path class="f" d="M42.29,119.91c1.9,.13,3.19,1.19,4.36,2.47,.07,.08,.1,.19,.17,.27,.33,.36,.71,.75,.24,1.22-.44,.44-.92,.13-1.3-.13-.87-.6-1.7-1.26-2.66-1.71-.34-.16-.67-.31-1.02-.43-.53-.18-1.1-.44-1.02-1.04,.09-.67,.87-.44,1.24-.65Z"/><path class="f" d="M130.36,41.91c3.06-.3,5.23,1.3,7.2,3.33,.11,.11,.13,.3,.24,.41,.21,.23,.14,.44-.02,.64-.19,.23-.39,.18-.63,.04-.55-.33-1.05-.71-1.49-1.18-.91-.97-1.96-1.77-3.11-2.44-.37-.21-.77-.35-1.2-.4-.37-.04-.7-.17-1-.4Z"/><path class="f" d="M113.12,47.61c.99,.28,1.77,.47,2.42,.97,.44,.33,.7,.76,.52,1.31-.15,.46-.52,.78-.97,.44-.86-.66-1.48-1.52-1.97-2.71Z"/></g></g></g></g></svg>