<?xml version="1.0" encoding="UTF-8"?><svg xmlns="http://www.w3.org/2000/svg" viewBox="0 0 188.83 188.83"><defs><style>.e{fill:#f2120c;}.f{fill:#e10101;}.g{fill:#86a1ea;}.h{fill:#51a60e;}</style></defs><g id="a"/><g id="b"><g id="c"><g id="d"><circle class="g" cx="94.41" cy="94.41" r="94.41"/><path class="h" d="M79.86,46.45c3.8-.04,7.6-.83,11.78,.26-1.43-5.95-.84-11.36,3.01-16.08,3.15-1.25,6.43-1.3,9.75-1.23,2.07,.05,3.25,.85,3.11,3.06-1.49,2.61-4.38,3.73-6.36,5.86-.95,1.02-1.71,2.07-2.44,3.2-1.42,1.91-1.43,2.74-.07,5.94,.48-.94-.44-2.24,.77-2.99,3.58,2.14,7.73,2.52,11.6,3.77,4.2,2.02,8.58,1.44,12.95,.87,.98-.13,2-.64,1.85,1.06l-.04,.02c-1.69,0-1.95,1.98-3.35,2.39-2.37,1.67-5.27,1.77-8.01,2.71,.66,2.47,3.62,3.5,3.87,6.17-1.94-.1-3.68-.68-5.24-1.9-2.27-1.77-4.93-2.73-7.65-3.6-1-.32-1.64-.59-1.8,.92-.6,5.73-5.12,8.26-9.81,12.02,.82-4.83-.74-8.35-1.84-11.99-.64-2.1-1.44-2.62-3.63-2.01-6.78,1.89-12.54,5.52-18.02,10.28-.12-1.71,.89-2.91,.46-4.24,2.21-4.07,6.2-6.44,9.67-9.62-2.81-.91-5.26-.76-7.72-.08-2.19-.3-4.35-.48-6.49,.47-.7,.31-1.62,.26-2.19-.55,2.12-1.75,4.72-2.54,7.18-3.62,3.02,.71,5.78-.59,8.64-1.1Z"/><path class="f" d="M122.44,52.59c-2.37,1.67-5.27,1.77-8.01,2.71,.66,2.47,3.62,3.5,3.87,6.17-1.94-.1-3.68-.68-5.24-1.9-2.27-1.77-4.93-2.73-7.65-3.6-1-.32-1.64-.59-1.8,.92-.6,5.73-5.12,8.26-9.81,12.02,.82-4.83-.74-8.35-1.84-11.99-.64-2.1-1.44-2.62-3.63-2.01-6.78,1.89-12.54,5.52-18.02,10.28-.12-1.71,.89-2.91,.46-4.24,2.21-4.07,6.2-6.44,9.67-9.62-2.81-.91-5.26-.76-7.72-.08-4.79,1.92-9.94,2.95-14.26,5.99,2.5,.42,4.42-1.2,6.6-1.88,1.12-.35,2.15-1.07,3.64-.87-3.06,5.69-5.16,11.5-4.56,17.97,.1,1.05-.4,2.45,1.03,2.86,1.18,.34,1.3-1.04,1.88-1.65,3.28-3.51,6.77-6.65,11.63-7.87,2.57-.64,4.97-1.72,7.4-4.49,0,2.48-.03,4.22,0,5.94,.12,5.14,3.74,7.42,8.46,5.36,3.4-1.49,6.12-3.89,8.69-6.5,3.33-3.38,5.63-3.58,9.68-1.07,3.24,2.01,6.52,3.98,10.07,6.15,.69-3.59,.12-6.84-.88-9.92-.85-2.61-.83-4.28,2.28-4.84,.69-.12,1.29-.62,1.3-1.48-.77-1.2-2.95-.48-3.23-2.35Z"/><path class="e" d="M155.53,91.51c-3.12-17.75-13.42-29.68-29.86-36.57-.01,.86-3.11,.89-4.06,.72-3.12-.54-5.16-1.72-4.31,.89,1.01,3.08,2.57,2.89,1.88,6.48-.19,.82-.05,3.08-4.66,0-6.65-4.43-7.76-6.61-9.01-3.5s-6.95,9.67-10.57,11.1c-4.79,1.89-4.02-2.95-4.14-8.09-.04-1.73-2.44-2.84-2.44-5.32-3.99,1.88-5.3,3.9-7.87,4.54-4.86,1.22-5.74,1.95-9.02,5.46-.58,.62-.88,1.2-2.06,.86-1.43-.41-.79-.61-.89-1.66-.6-6.47,2.6-7.94,5.65-13.63-1.49-.2-8,2.23-9.11,2.58-2.19,.68-4.1,2.3-6.6,1.88-.99,.5-2.02,.94-2.96,1.52-23.23,14.5-29.75,43.64-14.96,66.82,.15,.19,.3,.37,.45,.56,.15,.24,.31,.48,.46,.72,.35,1.03,.96,1.85,1.84,2.49v.02c1.76-.23,2.44,1.28,3.37,2.24,11.97,12.27,26.7,19.33,43.43,21.84,16.18,2.43,31.46-.35,44.67-10.79,9.82-7.76,15.82-17.97,19.02-29.97,.33-1.24-.08-2.95,1.67-3.57,.06-.6,.11-1.19,.17-1.79,.4-.37,.42-.8,.22-1.27,.48-4.86,.54-9.72-.3-14.54Z"/><path class="f" d="M33.81,88.72c24.65,95.19,109.35,55.71,122.02,17.33-1.96,20.32-15.68,44.43-40.39,50.56-7.43,1.84-21.47,3.64-28.87,2.45-13.14-1.12-61.5-24.23-52.76-70.34Z"/></g></g></g></svg>